<mxfile host="app.diagrams.net" agent="Mozilla/5.0 (Windows NT 10.0; Win64; x64) AppleWebKit/537.36 (KHTML, like Gecko) Chrome/140.0.0.0 Safari/537.36 Edg/140.0.0.0" version="28.2.5">
  <diagram name="Page-1" id="tKcdZa3_KOgq3F_Bh08O">
    <mxGraphModel dx="823" dy="477" grid="1" gridSize="10" guides="1" tooltips="1" connect="1" arrows="1" fold="1" page="1" pageScale="1" pageWidth="850" pageHeight="1100" math="0" shadow="0">
      <root>
        <mxCell id="0" />
        <mxCell id="1" parent="0" />
        <mxCell id="DoU1-KrDi31RymIyCZFU-5" value="" style="rounded=0;whiteSpace=wrap;html=1;" vertex="1" parent="1">
          <mxGeometry x="90" y="26.75" width="620" height="216.5" as="geometry" />
        </mxCell>
        <mxCell id="DoU1-KrDi31RymIyCZFU-1" value="" style="shape=image;verticalLabelPosition=bottom;labelBackgroundColor=default;verticalAlign=top;aspect=fixed;imageAspect=0;editableCssRules=.*;image=data:image/svg+xml,PHN2ZyB4bWxucz0iaHR0cDovL3d3dy53My5vcmcvMjAwMC9zdmciIGZpbGwtcnVsZT0iZXZlbm9kZCIgd2lkdGg9Ijk4LjU4NjA4ODAxMjY5NTMxIiBoZWlnaHQ9IjM4Ljk1MTcwMzg1NzQyMTg3NiIgdmlld0JveD0iMTAuNTQ1NDExMTkzODQ3NjU2IDEwLjUyNDM4NjQ4OTg2ODE2NCA5OC41ODYwODgwMTI2OTUzMSAzOC45NTE3MDM4NTc0MjE4NzYiPjxwYXRoIHN0cm9rZS13aWR0aD0iLjY0OSIgc3Ryb2tlPSIjZmRlZTIxIiBkPSJNNTguMDkyIDE3Ljc5NHYyNC40MTJoNS45OTN2LTExLjIybDEuMjM2LjAyM3YxMS4xOTdoNi4wNlYxNy43OTRoLTYuMDZ2OS4wNTdoLTEuMjM2di05LjA1N3ptMjAuNzUgMGgtNS44Mzh2MjQuNDEyaDUuODM4em0uOTU2IDBsNC42IDI0LjQxMmg2Ljk2bDQuNi0yNC40MTJIODkuNzhMODguMjU3IDI4LjI0Yy0uMTI3LjQtLjU1Ny40LS42MzQgMGwtMS41MjctMTAuNDQ2em0yOSAwSDk3LjIydjI0LjQxMmgxMS41ODd2LTYuNGwtNi40NDMtLjA1NXYtMi43NDRoMy4wN1YyNi42NWgtMy4wN3YtMi40NTVoNi40NDN6Ii8+PGcgdHJhbnNmb3JtPSJtYXRyaXgoLjA0NDQ0NyAwIDAgLjA0NDQ0NyAxMC44NjczMDUgMTAuODQ4MjE2KSI+PHBhdGggZmlsbD0iI2ZkZWUyMSIgZD0iTTUwMy4xMjcgMTE5Ljc1MmMtNy43LTIxLjExNS0yNzIuOTItMTI0LjIyLTI3Ni4zLTExMi45LTQ4LjcgMTIuNjk1LTY4LjUyIDY4LjgyNi0xMDIuMDIgMTA0LjM4bC03NC4zOTMtNC4yNmMtMzIuNzcgNDIuMTQyLTQ5Ljk2NyA4NS4yLTM4LjI1OCAxMjkuOTUgNDIuMDAyIDU2LjkwNiA5MC43NiAxMDUuMzMgMTIxLjE1IDE3Ni44IDIuNDAyIDMzLjY5MiAxNDUuODIgMy41MzMgMTc2LjU2LTMuMTM2LTQxLjk5MiAzMC4wNi03OC41NiA3Ni42NS02Mi44NDYgMjEwLjg0IDE0LjM0NiA2My4wMTQgMjQuMTYgMTMzLjM3IDE1MS40IDIwNC42NCAxNi43NSA5LjM4MiA1MS40MDcgMjAuMjA3IDcyLjgzOCAyOC4wOTggMjAuNDk1IDkuNCA0NC40NiAxMy4yNjQgMTEyLjA3LTcuNDEyIDM5LjEyNC0xNi44NjMgODEuMzY1LTI3LjAyMiAxMTkuNjUtNDMuODQ0bC00Ni4wMTcgMi4xNmMtNjMuMzcgMS4zOC0xMTIuMyA2LjEwNi0xMjcuMzgtMTEuNmwtNTguMzItMTAwLjY4IDM0LTY2LjA0YzQ3LjA1NiA0LjgyNiA2Mi42NzUgNDIuOTg2IDEwNC4xNSA1Ny41MThsNDguODg1LTM2LjIxNWMxNDIgODMuODE2IDE5OC40OC01My4xMiAyMTQuNjctMTU5Ljc3LTEuNzI4LTQzLjM5Mi05My45NTIgMTMuNi04OC4zNjItNi42OCAyLjE2Ni00Ni42NDQtMzUuODU0LTEwNy42Ny02MC40Mi0xNTUuMjJsMjguNDMtMTEwYzEyLjktMTEuNS01OS43Mi0xMzMuODYtMTE5LjAyLTE0OS4xMi01Mi4wMy0xMy40LTEzMC40NiA1Mi40OTItMTMwLjQ2IDUyLjQ5MnoiLz48ZyBmaWxsPSIjYzhjMDM3Ij48cGF0aCBkPSJNNzM2LjM4NyAzNTMuNTVjLjUgMTEuODE2LjQ1MiAyNi4xODcgMS41OTQgMzUuMTUtLjE5NyA2LjgzOC01LjMyMyA3LjEtOS41NjQgOC41MmwyNy42MyAxMC4xMmM1LjQ4NiA5LjIzIDkuODk0IDE4LjQ2MyAxNC4zNDcgMjcuNjk0IDUuMTY1IDIyLjcwOCAxLjMgMjMuMzU3LTIuMTI1IDI1LjAzLTEwLjAyNy4xMDItMjAuMDI1LjEyLTI5LjM1OC0xLjg2NCA0LjE4IDIuMjA3IDUuMSAzLjgxNSA1LjU0MyA2LjY0Mi44MTYgNS4yMTItMi41NCAxMi4zMy04LjA2NyAxOS4xODggOC4xNzIgNC41MzQgMjMuMDcgOC45NyAzNC4xNCAxMy4xOGwxMi42Mi0yOC4wOTNjLTUuNzE1LTQxLjI3LTIzLjA0NS03OS4zLTQ2Ljc2LTExNS41N3ptNTEuNTcgMTM4LjQzYzE1LjMyNCA2LjM4NyAzNi40OTUgNC41MTUgNjUuODQ4LTEwLjYxMyA0LjM2NS0zLjEwNCA4LjQzLTEuMjUuNjIgMy44NTgtMzguNSAzNC41NDctNTYuOTI3IDE3LjI2NS02Ni40NjcgNi43NTV6Ii8+PHBhdGggZD0iTTg1Ni43NDcgNDc2Ljg0YzQuNTUyIDguNzE2IDEuNzk0IDE1LjgwNS4yNjYgMjMuMTY3LTQuNzUzIDM3LjQ1LTE2LjQyMyA2Ny4wNTYtMzkuMzIgOTcuOTk0LTc0LjQ3OCAxMTkuNzQtMTQ5LjY3IDQ0LjgxNy0yMDkuNjItMy45NDZsLTI0Ljc5OCA2Mi4xMzdjLTEuMzE2IDUuNDQ2LTYuOCA5LjY4OCAzMS45MzcgMjYuNzM4bDM5LjQ1Mi0yNy44NjdjMTUwLjQ2IDExNC40OCAyNTcuMDgtMTYwLjI0IDIwMi4wOC0xNzguMjJ6bS0yMzAuNTMgMTA3Yy0xMC4xNS43MjQtNDAuMzYgMTAuOTk3LTQxLjcwNiAxNi45NDZsMTMuOTAyLTIwLjcxMnptLTE5Ljc0LTEyNi45N2MxLjg2IDAgMTAuNzg4IDIuMzk3IDkuODMgMS44NjQtMS4zNy0uNzYzLS4xNTMgMTIuNTIgMi42NTcgMTkuNDRsLTEwLjg5MyAyMy43YzIwLjg2NS0yNC4wNjMgNTMuODU4LTIyLjQ2MiA4NC40ODYtMjUuNTY0bC0xNC42MTItOS4wNTRjMi41MzgtOC40NjYtLjQ1LTE1LjE2NS0xLjg2LTIyLjM2OHptNTEuMjctNzEuMzdjLTIyLjM4NyA2Ljg2My00My44MTYgMTguMDc1LTU4LjIwMyA0MS45NzYgMTAuOTc2LTM5LjM5NSAxMy4yMTMtMzcuOSAxNi43NTctMzkuODQ2IDE1LjM1LTYuODY1IDI3LjkyMi0yLjU4NiA0MS40NDYtMi4xM3oiLz48L2c+PHBhdGggZmlsbD0iI2ZjZjZhMCIgZD0iTTUzOC4xOTcgODQ3LjI1Yy0yNy4wNyAyOS44Ny04Ny40Ny0yLjI2LTEzNy42My0xOC42NC0xMjcuNDYtODEuMDUtMTUyLjM2LTE1Ny4zNS0xNTQuMS0yMzIuMi02LjU1My0xMDcuMjIgMjYuMzctMTY5LjUyIDY4LjAxNC0xODQuMjctMjcuNTYgNTMuMTMtNDAuNCAxNDguNS0yNy42MyAyMTkuNDIgMTAuMzE1IDM5LjQ1NSAxMC41MyAxMDYgNzYuNTQ1IDE0MS42MiAzMi4zMjcgMTguMiAyMy41NyAzMi4zNjggNDUuNDMgNDkuNDEzIDIzLjk1NSAxOC42OCA5MC43NDcgMzYuNDM3IDEyOS4zNiAyNC42NTh6bTQwLjQ0LTQ5NS41Yy00NS44My02NS0xMTAuMy04OS4zODctMTgyLjk4LTkyLjA1MyAxNC41NjgtNC43NSAyOS4xMzYtNy4yMjIgNDMuNzA0LTE0LjI0NiAzLjU2Ny0zLjc0OCAyLjQtMTAuMzQ0IDEuMDYzLTE3LjA0Mi02OS45Ny0xOC4yNy0xMTQuMTMtNDAuODUtMTcwLjAzLTYxLjc4bDE1MC45IDM2LjIxNWMxMDEuOSAzLjg3MiA5My4xNTggMjkuMDMyIDE1Ny4zNCAxNDguOXptNDkuMDctMzEuMzVjLTMzLjg3LTQ4LjM1LTY2LjcyLTEwNy4wMy0xMTEuMy0xNDQuMzUtMTA3LjY0LTQ4LjU4NC0yMTQuMTItODQuNjY2LTMzOC45LTExNy41bDM5LjgyNy01MS4yMTZjMTMyLjQyIDMwLjIyNyAyNTYuOCA4MC44MDggMzY4LjIgMTY0LjIgMTguODUgNDcuNjYgMzEuNDIgOTUuMzgzIDQyLjE3MyAxNDguODd6bTY4LjI4LTg1LjQ0cy0xOC45ODgtNDIuNi0yOC4yMzMtNTguODY2Yy0yMS40NDYtMjMuNzY2LTMyLjMtNjguMDU0LTc2LjIxMy04OC45MjIgMTMuODkyIDMuNzUgMjMuNC0uNzE4IDUxLjc2IDI0Ljk5Mmw0NC42NyA4NC43MzR6bTIzLjYyIDczLjhjNC4zOC0zNi45MDggMTIuNjk1LTk2LjEgMy4xNTItMTE5LjVMNjQyLjcyIDgyLjYzYy00LjQzLTQuMTIzLTcuNjItOS43Mi0xMS4xLTE0LjA4NCAzNy42IDkuNzQ0IDc2Ljg2IDM1Ljg5NCAxMjkuOCAxMzkuMTN6Ii8+PHBhdGggZD0iTTU2MS40ODcgMzEzLjEyYy0xNC45OC0xMS44LTI4LjMzLTUzLjUtNTEuMDMtNjIuMTYtMjEtMS43NTgtMjguNzE1LTguMzY4LTU2LjM0NC0yLjc0IDEwLjAyLTUuMDIgMTkuNDgyLTExLjQ0NiAzMC4xMzQtMTQuODg1IDcuMjE1LTEuNzAzIDEzLjk4My4xODQgMjAuODY3IDEuMTMzIDEuNy0uODA0IDIuODE0LTEuODAzIDIuMzk4LTMuMzEzLTI3LjgxMi0xNy4xODctODQuODY2LTE3LjQzMi0xMjMuMzgtMjcuMjQzIDQ0LjcgMS40OTYgOTQuMTU2LS45OCAxMjcuNzUgOS44IDI3LjAxMyAyMy45NzMgMzUuNzg4IDY5LjEyIDQ5LjYwNSA5OS40MTV6bTgxLjktMjAxLjA5M2M2LjIuNTYzIDM5LjU3NCA1My4zNTMgNDEuMTQyIDYyLjEzNyAyLjc3NSAxOS4yMDIgOS42MiA0MC43MjggMTEuNDYgNjAuODItNS40OTctMTkuMjctMTEuNDg2LTM4LjUzNy0xOC45NzQtNTcuODA2LTIuMi01LjMwNi03LjcyNC0xNy4zMDItMjMuMTA3LTM0LjI3LTcuMTYzLTExLjk2LTguNy0yMS4zNi0xMC41Mi0zMC44OHptMTEzLjEgMjg3LjUyM0g3NDIuMmwxNS43OCA0LjE0MnptLTk3LjQyLTE0LjI1Yy0xNC4zNTgtMS43NjUtMjkuMS0yLTQzLjQ0OCAxLjE1Ni01Ljg1MiA3Ljg2LTYuMjU1IDE1Ljg1Ni04LjgxMyAyMy4yNDUgMTcuNDU0LTE5LjIzNiAyNC4zOC0yMC40MTIgNTIuMjYtMjQuNHptMTk1LjgyIDk5LjI3Yy04IDYuMzc3LTguNzg4IDEyLjM4LTMyLjQxMyAxOS41NzItMTcuMjI4IDQuMDc0LTI2Ljk2LTIuODMtMzUuMDctMTIuMTE2IDEyLjI5NCAzLjUyMiAxNC4yNiAxMi44IDQ3LjIyNSAyLjM5N3ptLTcxLjYgNGMtNS43NSAxNS44MTItMTEuOTUgMzEuOC0xOC4yIDQ2LjYtMTQuODgzIDE3LjQ1NC04LjU0IDcuNTA4LTMwLjgyIDM0LjYxNyA3LjEzLTEwLjk5OCAxNi40LTIxLjU2NiAyMS4yNTQtMzMuMDIgMy40LTcuNTQyIDcuNjUzLTE1LjU0MyA5LjUzMi0yMi4yNDQtNS45MDctMi45NS0xOC0zLjE4My0xOS42NC0yLjEyNS0xOS44MDggMTEuNjgzLTIzLjM4MiAyNC4wNDctMzUuMDYgMzYuMDg2IDguNDY0LTEzLjUzIDE1LjY5My0yOC4yOTggMjUuNTA1LTQwLjQ3NiAxLjExOC0xLjU4IDguMzgzLTEuODg2IDEyLjg1LTIuODItNi45NC0xLjItMTkuNzg2LTMuNjg1LTIwLjgyLTMuNTcyLTEyLjkyMiAzLjEwNS0yMC4xNjMgMTQuMzYtMjkuNzU2IDIxLjgzNiA2Ljk5NC0xMC4wOTggMTMuNDM2LTIwLjYxMiAyMi4zMTctMjkuMjkyLjg3OC0xLjAyIDI0Ljg4MyAxLjA4MiAzNy4zMjQgNi4wNDdsLjI0NyA0Ljk1IDcuMDYzIDIuODUgNS4zMTQtMTMuMzE0em0tMTU2Ljc1IDk1LjMzYy0zLjE4OC0xLjEtMzEuMzUtNC43LTMxLjM1LTMuODYtMTAuODEzIDcuNjk2LTEyLjQ1MyAxNS4wNi0xMi4yMiAyMS40MzYgMTgtMTcuNjk3IDE3LjMyLTE3Ljc0NyA0My41NzItMTcuNTc1em0tMjEuNC0xMjcuM3MyMC4zMjItMi45NjMgMTkuOTI2LTEuMDY1Yy0xLjQ3MiA3LjA1IDIuNDg4IDI0LjIzMyAyLjkyMyAyMS44MzZsLTExLjQyNCA5LjMyYzIzLjkyNi0xMi4wMyA0OS4xMTMtOS42MTIgNzQuNjU2LTExLjQ1IDAgMC0yMS41MDctNS45MzgtMjAuMTkyLTYuMTI1IDQuNzk4LS42OC0xLjI3Ny0yMi40My0yLjkyMy0yMi45IDQuMS0xLjM4NSA4LjA4Ny0yLjQzIDEyLjIyLTMuNDYyLTMwLjc1Ni04LjA0OC00OC41NC0zLjMwNi03NS4xODggMTMuODQ3eiIvPjxwYXRoIGQ9Ik03ODEuMDI3IDQ3MS43OGwtNC41MTcgMi4yNjNjLS42NC0xMy4yMy0xNC44NS0xMi4yNi0yNi44MzQtMTIuMzgybC05LjgzLTIuMzk3YzMgMi43NjYgMTIuMjMgMi41NSA4LjUwMiA4LjUyLTMuMTM3IDEuNjc3LTQuNTggOC44Ny02LjM3NiAxNC45MTJsLTUuMzE0LjI2NiAyOC40MjggMTEuMTg0IDYuMS45MzIgMTQuNjEyLTcuODU2eiIvPjxwYXRoIGZpbGw9IiNmZmYiIGQ9Ik02NDYuMzI3IDQ2Mi44NmMtMi4yODctNC41MjUtMTMuNzk0LTMuODgyLTE2LjI3NS0uOTU1LTIuMDE2IDIuMzgtLjEyNSAxNy42NDIgMi40NiAxNS4wNjggMy43MzctMy4yODUgOC42MTgtNC42NiAxNC40OC00LjM5NC43NC0yLjgyLjQ3Ny01Ljg2NS0uNjY0LTkuNzJ6bTExMC4zNSAyMi43NGMxLjA4Mi0uOCAzLjM3LTguNDQzIDIuNjMtMTAuNzMzLTEuNTEyLTUuNDAzLTEyLjIxMi00LjI2Ni0xMi4yMTItNC4yNjYtMi42IDEuNTM2LTQuOSA5Ljk2LTMuOTQ1IDEyLjc0LjQ1NSAyLjM1MyAxMS44IDMuMTAzIDEzLjUyNiAyLjI2eiIvPjxwYXRoIGQ9Ik0yOTkuMTA3IDc0OS42NGw2Ljc2LjY2YzQwLjA3IDE5LjY3NSAxMDYuMDUgNDguODQ3IDIwMS41NyAzMy4xN2wxNC45ODggMjMuNTg0Yy00Mi4wNjcgMjAuNDQyLTg3LjMxMiAxNS43MzgtMTI5LjcgMTcuMTcyem0tNTcuNTMtMTU1LjU0bDIwLjA3MyA4NC4yNjhjNTMuNzQgMzMuNTkzIDE0NS41NCA3Mi4wNyAyMjIuMDYgNjguOTY1bC0xNi45LTM4LjhjLTE1OS43My0zMy45Mi0xNzMuMjQtNzYuOC0yMjUuMjItMTE0LjQ0em00OS45NS0xNzIuNmM5LjggNjUuMzAyIDIyLjkwNyAxMTQuOCA3OS43IDE1Ni4yOCAzNC44MDQgMjUuMDMgNjkuMzUgNDkuOTU0IDExMS4zNyA3MC41MjQgMCAwLTMuNjg0IDE5LjE3LTYuNzYzIDE4LjgzLTEyNS4wNS0xMy45LTIxNi42LTExNy41OC0yMjcuNy0xNjQuOTQgMTAuNzQtMzYuMzMgMjYuMTUtNTkuMDIgNDMuNC04MC42OTN6bTYwLjEtMzdjMTYuNjY0IDcyLjM3NiA1Ni4zOTcgMTQ1LjY4IDk1LjkgMjEyLjE4IDE0LjQ3NyAxOC4zNyAxOC4yNjYgMjYuNDc1IDQwLjU4IDM3LjY2IDMwLjE2IDkuNTUgNTEuNDg2IDcuMTEyIDczLjM3NyA1LjY3Ni01Ljk5OC0xMS4xMDItMTEuMzMtMjIuNzA2LTE4LjIxNy0zMy4xNC00OS4wMTgtMzguNzY1LTI2LjM2NC03NC4wNi0xMy4zNDQtOTYuNDA2LTI3LjI1Ni02Ljg4Ny02My4zNy0yMS41MjUtNjguMzQ1LTQwLjc3OC04LTYyLjI3LTMuOTM3LTgyLjAyNSA0LjA3LTExNC0zNi45IDcuNzgyLTc0LjMgMTUuNDk0LTExNCAyOC44MnoiLz48cGF0aCBzdHJva2Utd2lkdGg9Ii4xMTQiIHN0cm9rZT0iIzAwMCIgZD0iTTIxNi4yMzcuMDU4Yy0xMi4xMyA3LjkyNS0yMy44MTggMTkuMjU2LTM2LjQgMzIuMTM1LTIwLjg0MyAyMS41NzUtMzQuNyA0Mi42Mi01NS45MTUgNTguMjI0LTQuMjQzIDMuNjYtMTYuMTUgOS41NS0zMS4xMiAxMC40MjUtNy4wNTIuMzUyLTExLjY0NiAxLjUyLTI0LjYwNC0uMTA4LTExLjQyOC02LjE4OC0yMi4yODUtMi4xNjQtMzIuODggMTAuNS0xMS42MiAxNi43LTI2LjMzNCA0OC40MzctMzIuNDUzIDY4LjQtMTIuNiA1MC45MzcgMTkuNTQgOTIuOTA1IDUwLjM3NCAxMjUuMjUgMjcuNDMgMjYuNzk2IDQzLjI0MyA0My41NDIgNTQuNTA1IDY4LjEwNyA4LjUyNyAxNS45MzMgMTQuODQ0IDM3LjggMjEuNjgzIDUzLjEzIDIuNDY2IDQuODYgMS45NTMgNC44MzUgOC42IDYuMyAxNC4zMzMgMy4wNiAzNC4yMTUgMy4wODMgNTEuOTE1IDQuNjA0IDcuNjU4LjEwNyAxOC4xNzUtLjE3OCAyOC4xNC0xLjIxNyAxMy43My0yLjU5MyAyOS44NjMtNS4xMzMgNDMuMzg0LTkuOCAxMy4yMTMtMy4yNTQgMjQuOTg1LTcuNzYgMzUuNTk3LTExLjkwNy0xLjM3IDQuNjQ0LTExLjQ3OCA5LjExNS0xNS4yNjggMTUuMDAyLTM1Ljk3IDUxLjUtNDUuODIzIDk3LjMwOC0zOS41NiAxNjkuNiAzLjU0MiAzMi4wNDIgMTAuODk2IDU4LjYwNSAyMS45OTIgODguOTk3IDUuMDc3IDEzLjkwOCAxNS44ODIgMzUuOTM0IDI2LjIzNiA1MC41NjUgMzAuOCA0My41MDYgOTkuNjcyIDk5LjM3NCAxOTUuNTYgMTIwLjg4IDE2LjczIDIuMjg3IDM1LjcxNSAxLjA2NyA1My41Ny0zLjY4OCA0Ny4zMjYtMTQuMzQ2IDE0My43OC00OC4yNzUgMTQzLjc4LTQ4LjI3NXMtODUuNjIgNy4wODMtMTI0LjgzIDMuMjA2Yy05LjA3OC0xLjQyLTE5LjA4LTEuOS0yNS40MDUtOC4wODctMS4wNi0xLjM3LTQuOTE0LTkuMTMyLTIuNDI2LTkuMjAyIDMuMzk1LS4wOTUgMTMuMTQyLTQuMTQgMjguMi01LjQ4Mi0zMi4xMy0zLjQ2LTMxLjY3LTMuNDE4LTM0LjAxNi05LjI3LTMuNjQ3LTkuMDg1LTkuMjMtMjEuNTAyLTE0Ljk3Ny0zMi4zNjcgMTQuMTE4IDEuMiA0NS4zNzYgMi45NDYgNTUuOTg0LTguMDAzIDAgMC0xOC40OTcgMi4xMzYtMzQuODQzLjIxOC01LjUwNy0uNjQ2LTE0LjktMy45OTUtMTcuNy01LjAzLTcuMzM4LTIuODU4LTEzLjM4LTMuNzQ2LTE0Ljc4OC01LjYtMi41NDgtNi40ODYtNC4yNzUtOC42NjctNy4zNS0xNy4zNTYtNC4xNjYtMTEuNTA0LTQuNDk2LTI0LjMzNy01LjMtMzYuMDgzIDEwLjY5MyAxMy4xOCAyNC4zMTggMjQuMjc1IDQyLjM1NiAyOS45NC4yMy0uNDg4IDIzLjQgMTAuMDcyIDQwLjIyNiA0LjY0MmwzLjUtMS4xMjVjMCAuMy0xMS4xNDguOTc3LTE1LjIzNy0xLjA0Ny0zNC4yMi0xNC41NDUtMzkuMzctMjcuMjc2LTQ0Ljg5NS0zMy42bC0xNC43NzctMjIuMTMzYzQuNDk0LTguOTYgNy4wMzUtOS4zIDEzLTkuMzg0IDE4IDIgMjUuODQ4IDMuNTQgMzYuODA3Ljg5NiA3LjQwNSAxNS4yNCA5LjQwNiAzMC41NyAyNi4yNjUgNDEuNjYyIDU2LjE2NiAxNi42NzIgNjguMzctNC45NSA4MS45NzMtMjQuMDU3IDQwLjQxMiAyOS42NTggMTA2LjIgMzguODAzIDE1MS45LjUxNSA1OC4wODYtNjcuMjEyIDc2LjQ3Ni0xNzMuMTcgNzEuMzI1LTE3OS4yMi03LjI1NC0xMi4zMDctMTYuNzcyLTI1LTI0Ljk0NS0yMy4yNDUtMjkuMTMgNy45NTItMzkuODcgMjIuNzMtNjguNzM1IDE5LjM2IDMuNDM4LS4xOTQgOS4yMi0uMjg3IDkuMjYzLS42MTUgMi4yMjQtMjQuNDQtLjE4LTM2LjI2Ny0xLjI1Mi0zOC4yOTctOC43Ni0xOS4zMTctMjAuMjYtMzkuNjQ2LTI4LjI3OC01NC44OC0yLjA2Ny0zLjE2LTguMTM3LTI3LjE2NS0xOC4zMDgtMzYuNjQ4LTQuMzYyLTMuNzI1LTE1LjA0LTEzLjU0Ni0xNS4wNC0xMy41NDZsLS45MDUgMTAuNDRzNC4xNzQuNjMgNS43NjIgNy4wOTdjNi4wMjIgMjQuNTE3IDM2LjY4NyA4Mi40ODUgMzguOTM4IDg1LjI2MyAxMC44NjggMTcuNTQ1IDEuMTA1IDM5LjQgOS4zNjcgNTEuNjYzLjc5NCAxLjU1OCAxNi44NTctLjEzNyAyOS4zMDcuNjI4IDIwLjQ3My00LjQwMyAxOS42LTEzLjQyNiAzNy4yOTQtMTQuNzgyIDExLjkxMy0uOTEzIDEzLjEwOCAyMS40NiAxMi45NSAyMy4xOTYtMi4yMiAyNC43MDQtOS43MzUgNTMuNDI3LTIxLjIzNiA3OS42NTgtMjMuOTEyIDQ2LjA3LTUwLjcgODcuNDQ2LTg4LjY3IDkzLjIxNi00Ni4zMjYgOC4wOTUtNzAuNC0xMi4xNTgtOTUuNTEyLTI1LjA1NWwtOS42MDcgOC4xOTNjLTMyLjYzNyAzMi41LTcxLjQgMjkuNjE0LTg3LjI0LTEyLjg1LTcuOS0xNi40NzMtMTguMTcyLTI2LjU3LTI2Ljk3Ni00MC43bC00Ni42ODggMzMuNjI3Yy0zLjg4NiA3Ljk3LTguNjY1IDIwLjU0LTE0LjQ3IDM0LjU4LTQuMDM2IDkuNzYtNy40MiAyNi41MjUtNy4yIDQwLjQ1Ni01Ljk4NSAxMC4xOTUgMjAuNzMgNTEuNTQyIDM3LjYgNzYuNjkybDE0LjYgMjEuMTkzYzMuMzQ4IDguNjgzIDEwLjY4IDE2LjM1IDExLjEyNCAxNy4yODQgMzEuMzM3IDQwLjg3Mi0zOS41MyAzMS40Ni01NC4xNjcgMjktMjguODc2LTQuNi01Ny4xMi0xNi42NjMtODMuNjctMzIuNzkybC00LjYwNS0yLjg0OGMtMzEuNTUtMTkuODY2LTYwLjU4LTQ1LjI4My04NS4yNjQtNzAuNDIzLTE0LjcxOC0xNi42NjYtMjguNzMyLTUwLjgyNy0zOS4wODMtNzUuMDQ1LTE1LjUxMy01OC4yMjYtMzcuNzc2LTE1OS4xNSAyMi41MzItMjM1LjYzIDMuODIzLTQuMzcyIDcuOTQ4LTExLjY1IDExLjQ2LTEzLjEgMTcuOTE4LTEyLjEyIDM3LjM3NS0yMC4zOCA1OC4yOTgtMjQuOTY2bC0yLjExMi0xMy41NjNjLTEwLjQ1IDIuMzc0LTQ1LjYzMyAxNS4yNDMtNTUuNTggMjAuNjMtMjIuNjIzIDYuNTU4LTQxLjM4OCAxMy40MDYtNzAuMjIgMjAuNjI1LTkuMzcyIDEuMTQ3LTE4LjU5MiAxLjE2Ny0yNy41OC0uMDUzLTIwLjc0LTIuODE4LTU2LjA5NC0uMy01OC4zNS0yLjM5Ni0xNC4wNDQtMTkuNTg1LTE3LjktNTQuNjc2LTMwLjcwMy03My40NTZsLS4xNS0uMTg3LS4xNjItLjE3OGMtNy40Ny0xMC4wNC0xNi4xNzctMTguMjMtMjQuNzUyLTI2Ljc1LTMwLjcwOC0zMC41LTU3LTYwLTY0LjM0OC05MS4yNy0xLjg1LTkuMjMtNi42MTQtMTguOC00LjA4Mi00Ni4xbC4wNDctLjEzNC4wNDQtLjEzNGM3LjM4OC0yNS41MTMgMTkuNDA3LTQ2LjMgMzkuODA2LTY3LjE1MyAyMS4yMjguMzQzIDQyLjI0LjggNTguNjA3IDMuOTM2IDcuNSAxLjI1NiAyMy4xMjQgMy4yOTYgMzkuMjUyIDkuMzA0IDQwLjgyMiAxNS4yMDcgOTQuNzYgNDAuMiA5NC43NiA0MC4yLTQwLjQ4OC0yMi4yMzYtODUuNzYtNTEuMTE1LTExNC4zNS01Ni45NDMtNC4yNTQtLjYwMi02Ljg2OC0yLjU0My04LjEzLTUuOTMgNDMtMjUuMjY0IDUwLjg2NS01NSA3OS4xNDctODEuNjg2IDEyLjkyNS01LjYyNiAxNy45NjUtOC40OTggMjguOTQ3LTkuNjkyIDEwMS41NyAxNi4wNiAxNjUuNSA1Ni41MTUgMjE2LjEgODMuNTY2IDIwLjUzIDExLjE2NCAzOS4yIDE5LjYwNiA1Ny4wMTUgMjkuNzczIDE1LjYyNCA1LjE0IDYyLjc3IDQwLjczNCA3Ni41NyA1OS45MjUgMTQuMDE3IDI5LjU5NSAyNC4yNSA2MS41NjMgMzMuNTg1IDkyLjQgNi42OTMgMzEuMzc1IDEyLjU2NCA0NC4xMDIgMTIuNTY0IDQ0LjEwMnMtNS42ODgtMjYuMjQzLTQuNzQtMzAuOTU4YzUuODk4IDIuMjA0IDE5Ljg0IDYuNTU3IDI1LjYyIDUuODggMCAwLTI1LjgxOC0xMy4zNDYtMjkuMi0yNS4xNC0xMC44NTYtMzcuODQ3LTIxLjc0NC05Ni43NjUtMjQuNjgtOTkuODM3LTguMjc0LTEwLjQtNDIuNzc3LTM2LjgxNi02My45NC00OS4wMy04LjAwNi00LjYyLTEyLjMzMy03LjQ4Ny0xMi42Ny05LjUxOCA2Ljc2LTYuODMgMTUuMS0xNS44NjUgMjIuNTk4LTIxLjYwNiA3LjE3Ny01LjUwMyAxMy43LTExLjcgMjMuNzEzLTE1LjQyMyA0My45NjMtMTkuOCA2OS4xIDcuNjE4IDc1LjA2NiAyLjA2NiAwIDAtOS40NTgtMTAuODQtNS4yNTctOS4wNTYgNC4zMDIgMi4zMyAxOC4zMjMgNS4wNzggMTkuODYyIDYuNSAxNi4wMjMgMTIuNTM0IDU3LjkxMyA1OC4zNDQgODMuMTYgMTA2LjY4IDYuMDY0IDExLjg0IDguNTMgMTkuNjM2IDUuNzE2IDMzLjg5My0yLjgyIDE0LjI3LTUuMDAyIDIyLjExNy04LjA3OCAzMS42NDctMi43NzggNi4zNy0xOC40OTggNDkuOTg4LTE4LjQzNyA1NS44NDgtMy4xNjcgMjMuOTMyIDEwLjI2NCA1My44OTMgMTAuMjY0IDUzLjg5My4xMjctOC4xMzMtLjUtMTIuNDY2LjIzNy0xOC4yODJsLjkwNC0xMC4zOTNzLS41NzMtMi43NjQtLjQ3LTMuODZjLjY4Mi03LjE4NyAyLjQ0NS0xMy4yMyAyLjk2Mi0xNy4zNDUgNS4wNDgtMzEuMjU1IDEzLjgyMi01My43NTUgMjMuNzc1LTgxLjE4MiAyLjk1OC02LjkyMiA2LjgyOC0xMC43NyA2LjYzLTE2LjA0LjE2My05LjM1Mi04LjIwNS0yMS45MDQtMTQuMjUyLTM0LjE2My02LjEtMTIuNC0xMy40LTI2LjIwMi0yMi45Ni00MC43Ni0yMS44Mi0zMS4zNzYtNDAuNDItNTUuOTI1LTc0LjQ4LTcxLjMtOS41My00LjE4Mi00Ny4wMy04LjI3LTU5Ljk4LTUuODQtMTUuNyAzLjI3My0yOS4yMiA2LjUtNDAgMTMuMzk4LTE2Ljk1IDEwLjg1NC0zMC4yNyAyNy42Ni00NS45IDM3LjU2LTM0LjU2LTE3LjI4Mi01MS4yNC0zMC4yMTYtNTQuMzUtMzItMjAuNTQtMTEuMDA2LTQ1LjItMjMuNzc4LTcxLjczLTM1LjktMTIuNzItMTEuODYyLTkxLjctNDAuMjMzLTE2NC4wNC00NS44OTJ6bTQ0Mi4wOCA2NDQuNmMtMjEuMy0xNi42NS0zOS4yMy0zMy44LTUxLjA1LTUxLjQ0LTMuODU4IDIwLjc1OC0xNy44NjQgMzUuNTQyLTI4LjY4OCA1MC4wODMtMi4xNTUgMy40LTMuNzA4IDguMDYgNi45MDIgMjIuODggMi44NiAzLjk0OCAxMy4yMDcgNC42MjMgMjAuMTkyIDQuMjYtNy4xMDYtNS4zNzItMTcuOTE4LTExLjA1My0xOS42Ni0xNS45NzcgMTIuNSA4LjUgMjQuMDc2IDEwLjk1NyAzNC41MzggOS41ODYgMi40LS4yNyA1LjM2LTIuODA0IDcuNjU1LTYuNzA2IDQuNjY0LTEwLjAyIDguMzE1LTEyLjQzMyAxMi4wMDUtMTUuMTNsOC41MDIgMTAuNjV6Ii8+PC9nPjwvc3ZnPg==;" vertex="1" parent="1">
          <mxGeometry x="100" y="80" width="279.23" height="110" as="geometry" />
        </mxCell>
        <mxCell id="DoU1-KrDi31RymIyCZFU-2" value="" style="shape=image;verticalLabelPosition=bottom;labelBackgroundColor=default;verticalAlign=top;aspect=fixed;imageAspect=0;image=data:image/png,iVBORw0KGgoAAAANSUhEUgAAAfcAAAH3CAYAAACmdRYnAAB/5UlEQVR42uy9B3BU15bvrTsz934TaubOe997Ne/VmzfzVXUDVkuIIGO1JAQii5wkkQQSQhLKEiiLILJAIgeTMcHkbHLOSWByjsYGB0wyYJO9vrMOtge6T0udTvcJ/1X1rxskWifsvX69917BxwcGg8FgMBgMBoN53ojoT0lJUX/N7Bn1HxkxXWolx0aHpvaKbpQaG9k8JTaqdUpMdIeUnpFRqTGRPVJ7RsWlxEQlpfSMTkvtGd0vtWdkvvCzgSz+7/z/8c/4d/h3+d/wvxU/Q/gs/kz+bP4b/Lf4b/Lf5mvAm4DBYDAYrBJrGhj41/p+1WuZ/Yxtg03G+GDfanlmP8MYs8k4J8hkXGc2GQ4I//2i2dd4z+xreBPkayBviq9BvBa+JuHa3l2jcQ5fM1873wPfC98T3xveMAwGg8E0Z80DAv4p1GT0C/av1ibYZEgXQDhOAORq4T9PCnB86G1Yy/5lQLhH8V7f3fM4fgb8LPiZ8LPBCIHBYDCYYi24VvX/YzZVbymsWgsEiH0uQK2CV7hah7frOwG8CyA8K35m4rOr3pKfJUYUDAaDwTy6EjebqgUJIEoQ/nOyAKe9ApgeANTuXvEbH7x7tsIzfvesg7DSh8FgMJjLFhpa45+D/Ks1C/YzDjb7GtYIwLkmgOdXbwGvfs2PqEVwXerYNIxi2kdQUrdOlB7XjXL6xlJxRhINyU2n0uL+NH5YEU0cMYCmlA6maWOG0PSxw2jmuOE0e+IoUfzf+f/jn/Hv8O/yv+F/y5/Bn8WfyZ/Nf4P/Fv9N/tt8DV6E/q/8Dvhd8Dvhd8PvCCMVBoPBYDatgb/h/wb5Ve8a5GucGmQynvJEAFt4XX/q3LwhJXXvRIVp8SJgPy0fSktmTaKNyz+jg9vW0pkjO+n6uSP09eUTihBfC18TXxtfI18rXzNfO98D3wvfE9+bJwL8+F2J70x4d/wOMZJhMBhMpxYVFfW3wSZjHTHIzdewVADE13LAJyzgI4psEU7psV1oREGWsHIupXWLZ4tgvPTlfsUAWy7xPfK98j3zvfMz4GfBz4SfjSzQF94lv1MxeE94x/yuMeJhMBhMoyZGrZsMuWZf43azyfjUnUBpFlSHeke2pcH9Umj2hJG0ZeUCOn1om+bh7ar4GfGz4mfGz46fIT9LN5/fP+V3zu+exwBmAgwGg6nYWgYZ/yXYv3pHwbHPctfKPMS/OkVFNKL8lHjx3HrLqgV04fgegNrN4mfKz5afMT9rfub87N23sjfO4rHBYwQzBQaDwRRuvxWEKeBIa8GJv3IVBHx2XJiRQHMnj6Y9G1co6uxbb+Jnz++A3wW/E343bgD9KzEqXxgzPHYwg2AwGEwBFhwc/A9BftU6C056ruCk77ri6BsF1qSUmEiaMKxYDBS7fPIAoKpw8Tvid8XvjN8dv0MX8+7v8ljiMcVjCzMMBoPBPGTh4eF/H+xr6PBbINwzZx1500/qUEZcV5pePpz2bV5Jty8dBzBVLn6H/C75nfK75Xfswqr+mRiYJ4w1HnOYeTAYDOZmizKZ/sI1y80m4yJhdfXEqcj12iZK7tFZTNs6tH0tYKgT8bvmd87vnseAkyv6J+LYE8Ygj0XMSBgMBnPSkgID/yyWdPU1zBcc7GNnnHK31s1o9MAcMSL75rmjgJ3OxWOAxwKPCR4bTq7qH/OY5LHJYxQzFQaDwaowbilq9jeGi53GnCjryiuztF7RNG/KGDp9eAeABlWeiieMER4rPGacWdWLZXJ5rApjFu1wYTAYzMKC/P3/7V3jEMNVRx1sc3MdGpCVJBZKQTQ75Eo0Po8hHks8ppzogHeVxzCPZcxoGAymWyspKfmbYD9DBLcDdTRtrWVoPSrJSRNzob+6WAE4QW4VjykeWzzGeKw5nl5nWM1jm8c4ZjoMBtOFhQcY/11sxmIyfOWI0+TGJUPz0mnn+iUAEORR8Zjjscdj0MHV/Fc81nnMY+bDYDDtAT08/O9CTMb2gsPb6EhDlvC6NakgNZ42LJuHFTqkiBU9j0Uekzw2HWpwI4x9ngM8F+ARYDCYuqFeu/a/mn2r5Zt9jXfsdYTBftXEtKXl86biDB1S9Bk9j1EeqzxmHUiru8NzgucGPAQMBlOVhfj6/meQr3GCIw1aOjSpT5NGDUKUO6TKqHseuzyGHWlow3OE5wo8BgwGU7SF+tf42OxnXGbv1ntYLV9xi3P7usWABKQJ8VjmMc1j294te54zPHfgQWAwmGJMzE3n6nHcrMXOVUvHpmFi1bCLJ/YBCJAmxWObxziPdQe27LmJTVvkzMNgMK8Z19s2+xkSzSbjJXvP0rP69KDNKxfA+UO6Eo95Hvv2ns3znOK5hZr2MBjMo1AP9jNmm02G7+1xVI0/rkkji7Pp5IFtcPSQrsVzgOcCzwk7U+m+57kGyMNgMNmMG2YE+RlT7W2tytuRsyeOomunD8GxQ9B74jnBc8PeLXtxzglzD01rYDCYO1fqf2f2MyYIq4jb9jiiXh1b0ZpFM+HEIcgO8VzhOWPnSv42z0XkysNgMOdX6lFRfxvsZ+hlNhmv2+N4UmKiaNtaRL1DkDPiucNzyM4z+es8N3mOwlPBYDC7jCN1g/yqdxWcyGV7guRyk2PRHx2C3Nh/nueUncF3l3muIroeBoNValwe0+xrOGcP1PNT4unY7o1wyBAkg3hu8RyzB/I8Z3nuwoPBYLAPLMi/RkCQybCrKicS4l9dLNBRsQdQhyBPiOcazzmee1V3pBPmsDCX4dFgMJ1beGD1/2E2GaZXVVHObDKKW4UVezfB4UKQNyAvzD2egzwXq6x4J8xpntvwcDCYziwpMPDPZj9jP+Gb/qOqVgNpvaLp4DacqUOQEsRzkeekHav4RzzHea7D48FgetiC963eyp5gud6RbdE7HYIU3GOe56hdQXfCnIfng8E0amb/ar5mk3FLVc6gc7MGtG7xbDhQCFKBeK7ynLUjfW4L+wB4QhhMI9Y0MPCvZpNhkjC5X1c2+ZsF1aHZE0vpq4sVcJoQpCLxnOW5y3O4CsC/Zl/APgGeEQZTsQX7GjpUVS42LOAjGj0gh66c2g9HCUEqFs9hnss8p6sqZ8u+AR4SBlOZhZtM/yvIZFxZ1VZdemxXOrF/MxwjBGlIPKd5blcddGdcyb4CHhMGU8Vq3dinqih4blixYelcOEII0rB4jlfZnEbwFewz4DlhMKVC3c9gFL6J765sIjes60dTS0vo1vljcH4QpAPxXOc5z3O/ilX8bvYh8KQwmFK24N91bSsw+xqeVzZ5M+K60unD2+HwIEiH4rnPPqCKAjjP2Zeg6xwM5mULqmkIFL5xn6pswrYKC6LVC2fAwUEQJPoC9glVrOJPsW+Bh4XBvLJarzaisrKx3HBiREEWXTt9CE4NgqA/xD6BfUNlTWnEMraCj8EqHgbz4Nm62WQ8Vtk37+iIRrR380o4MgiCbGrPphWir6giN/4YzuJhMLm34U3VeguT7anNrm01a9C4oYUImIMgyO6AO/YZ7DsqAfxT9j3wwDCY21frfv9dmGCrKvuG3a1NUzR4gSDIKR3Ytkb0IVWs4lexL4JHhsHcYCF+NRqbfY13KlutTxheTLcuYLUOQZALq3jBh7AvqXQVL/gi9knwzDCYkxZlMv3F7GcYI0yoX202eWnekPbhbB2CIDeKfQr7lkpW8b+yb2IfBU8NgzmyDV+z+kfCN+QvK9siG5aXQdfPHYEzgiDI7WLfwj6mihr1X7KvgseGwezZhvc19gwyGX62NaFa1v+ENq9cAAcEQZDsYl/DPqeS8rU/s8+C54bBbFhSYOCfzSbjlEobvcR1o4vH98LpQBDkMbHPYd9TRbDdFPZh8OQw2HsWFuj7v82+xkOVtWWdPXEUHA0EQV4T+6DK2smyD2NfBo8OgwkWaqoeFmQyfFdZ0BxS3CAIUoLYF3Vu1qCybfrv2KfBs8N0bUG+1bLMJuNrWxOlIDWerp85DKcCQZBygu0En8S+qZIt+tfs2+DhYbqztoGB/yhMgMWVbcN/NrUMjgSCIMWKfVSl2/SCj2NfB48P04WF+BsNZl/DWVsTol14CHLXIQhSTU48+6xKGtCcZZ8Hzw/T+DZ89VZBJsMjm9HwsV3p8skDcBoQBKlGl77cL/quSs7hH7HvAwFg2gS7nzG1shat44cVwVFAEKRasQ+rrIUs+0CQAKYZKykp+RuzyTjW1qAPr1uTVi+cAecAQZDqxb6MfVol5/Bj2SeCDDBVW3Bw8D8I31hX2xroHZrUpyO7voBTgCBIM2Kfxr6tklX8avaNIARMlRZWx/g/hW+pR20N8OQenXG+DkGQJsW+jX1cJSv4o+wjQQqYqiw0oEaNIJPxhq2BPSQ3nb66WAEnAEGQZsU+jn2d7UA74w32lSAGTBUW4lutgdlkeCg1mIP9qqGMLARBuitby75PegVveMg+E+SAKdrMJmMP4dvoS6lB3CiwJm1YOheTHYIg3Yl9n81AO8Fnsu8EQWDKDJ4zGYtsbT+1bhBEh7ajPjwEQfoV+0D2hbb8JPtQkASmrBW7r3G0rQEbHdGITh/egckNQZDuxb6QfWIlneVGgygwrxsR/amyHuwJXdrTlVP7MakhCIJ+E/tE9o2V9YZn3wrCwLxiUVFRfysMwnm2BmhucizdPHcUkxnSTWT0jfNH6NrpQ4LzPvCHLguO/Hfx/7525rA4L5Atom/xGGAfWQng56HYDczjlhQY+Gdh8C23NTBHFGZjAkOa0MXje2j3hmW0dM5kmjRyIA3ul0Lpcd2oR7sW1L5RKDX5pDaF+Fe3ne5UiYQ5JAZZ8efERbah/ok9aURBFk0bM0T8e9yUhL8s4D1oV/y+Kxkfy9nXgjgwj1jLlsb/x+xr3GBrQE4YXoxJC6lODNGd65eIaUsDs/tSXOfW1PSTOk5B291qFRZEiV07UElOmthmdP+WVXTrwjG8N42IfWYlgP+CfS7IA5PVmgcE/JPZZNhpaxWCHHZITSVCF0wtp+KMJIpsES6OXyWA3F5xH/GY9hEi8JfMmkRnjuzEe1V5LrytMcg+l30vCASTxZoGBv5VGGQHpQYfb0uyg8EkhZSqE/s309xJo8Wt7xbBdVUFcnvVsWmYuOvAW/oXju/Be1eZ2IfaOuJh38s+GCSCudWafPLR/ysMsBNSg65+zY9ozaKZmJyQosTb1huXf0bD8jJE6GkR5lWd58d2bEWTRg1CjQkViX0p+1Qb7/UE+2IQCea2FbstsPPW4BdL52BSQorQ9XNHaNWC6ZSXHEdN6gXoDuiVqW3DYBpV3E8M0sNYUbbYp7JvtQV4rOBh7jpjl9yKD6ttok0r5mMyQl5fobMzzE+Jr7SPNvTh9v24oYV0bPdGjCGFin0r+1hbW/Q4g4e5FhVvI3iuYV0/2rp6ISYh5DUd3rmeRhZnU4uQQADbBXEK3uczxtP1s4cxrhQm9rHsa20F2SGKHuawiXnsNtLdeLBtX7cYkw/yyrb7wunjxShxgNm9avxxTRrcP1XMIsBYU47Y19oEvOCjkQcPs9t+qzy33NZWPFbskDci3UcUZYsFYwBi+ZXUvRNiaRS2gre9RW9czj4b5IJVar/Vip9nK3gOZ+yQJ8VFZbLiu9vshQ3Jq05NG9CCaWPp1nkUzFHEGbyNIDv22ahFD6vUgnyNU22lu+GbPOTJdCBsvStH3KZ01vgROJdXQBS9rTQ5bjYDgsEkzVbbVi6qgDx2SG7dvnRcLL5SWTtMyLvi4MWZ44ajIZSXv/jaLHSDdrEwSws2GYtsFcJA5TlIbjHUeQtYCwAMDfiIOjYLp5Re3akkvz9NHD2S5s+aTutXLqd9u3bQiWNH6OK5s/TVzRv0w/ff0aOHD+jJTz/Rz8+e0YsXL+j58+f07NlT+unxY3r44D59/+1dunntKp0/c5oqDh+i3du30pplS2je9Kk0ftQwGpiTRUk9oql9kzAKqVnDYyt5Lt2Lznbeq2Rnq1Qt+3IQDfZuxW4y9rA1iVErHpJTqxdOV+VKnR1rZERjyktPpiljR4vgPnXiOP147wf69ddfvaa3b9/SvR++p5MVx8Rrmjp2DBVkpFBUy6ayxC10bt6Q1i/BcZ23atFXMj57gGw6txDfag2CTMaX6O4GeTpQrlfHVqoAOUOxR4fWNGpwsbhiPnf6JP3y889ehbgz4l2ByxfO06Z1q8UVf2L3KGpQx8890fXdOqHErZK6yQk+nX07CKdTCw2oUcNsMjyU7MdekIXJA7ldFXs2UlafHoqGeXhgTcpMiKP5Mz8Vt9DVCHJ79ebNG7p+9QqtXbGUhhbmUqfmzu+i8Dnw8PxMunLqAMa6B2WrHzz7dvbxIJ3OLKyO8X8K3+5uSA2K3ORYTBrIrWKHz3XNBWejOJjzOXVyz24izM+e+pJev36tWZjbo/v37tGOzRvFnQpnYB8R8rEYQ4Fx7zmxz7axgr/Bvh7E00vwXHDwP5hNxqNSgyGhS3tEwkJuFZc2ZYevJKC3CjPTyIFFYnDas6dPdA3zqvTtnTu0buUyyk9PpkaB9jfjSYmJolMHt2IOeEDss9l32zh/P8o+H+TTuJWUlPyN2dewWmoQcGDTlVP7MVkgt4jPYGMVdK7OEeyTykrpzMkTgLaTev3qFR0/cljMAODnWdUz57KpcyaWYj54ZHdsv83gVPb57PtBQG1Hxo+zldpy+vAOTBLI9frvZw/T6IE5HkvLqrTNaaP6NLm8lK5cvAA4y6Crly/R7KmTxIDDqgLuTh/ahvkhs9iHsy+3sYIfBwJq1IL8jKlSL71RYE1EukJuq6DFfcO92gClXi3xvJjTwQBgz4nz9udMm0xdWjeXfC9N6gXQ8nlTMU88sGNms/WxwACQUGtg963eyuxreCOV5rNh6VxMCsglnTmyk/olxHgV6lw0ZvP6tWIRGMDW+yt6zv9v3cD6i15hRgJdP4MytnKKfbpUXYN3DKjeCkTUSgCdn8EYZDI8QpEaSI6SsbMnjBR3f7wB9ObBH9O0cWX0ze2vAFUFiovqHD24nwbn9fsgpz6yRSO0lvVWkRuBBcwEkFHl1jYw8B+Fb2tnpV7ykNx0TALIpe2/Hu1aeAXqvaM7isVYXr58AYiqRE+fPKFVSz6nXp3avasnUNefVnw2DXNJRrGPtxFgd5bZAEKqO4BusdTLTe7RGXWhIafE7T/HDy/2eM46F0kZ2D+TLpw9A1iqXFwpb/SQgeKOT1lJHuaVTGIfz77eRoDdYhBStefs1bKkXmqHJvXp8klUkYIc177NK6lLqyYehTrnVo8fNVzMtwYYtSWuMbBswVwaN6yYrp87gjkmg9jXs8+Xnl/VskBKlVmoqXqY8M3stVVpzbo1cdYFOVUko2xwns1Wk3Kdp382Y5q4nQsQav1s/g19fe0s5ppMYp8vFUHPjGBWgJgqsbBA3/8dZDJ8J+UwVy+cgcEOOaTdG5aJ3b88WT1u8Wdz6PkvvwB8OtNPD77DnJOtA+MMWwF23zEzQE6FW1Jg4J/NvsZDUi9x/LAiDHLIbt04f4RGFGXL0ipUupBSMK1csghBcjrX85+f0J1rpzEHZRAzQDrAzniI2QGCKvqc3ThV6uWlx3bF4Ibs1oGtqymyRbhHoN4ipJ64UueWpIAb9K7M7Qv67tYFzEUZxCyQnovGqSCoQi3E19hT6qW1Cw9BAB1kd9765NJBHomEb/JJbfFMXcstVSHXzuHv3bmGeSlDgB0zQTIjRWAISKq0QjU1q38UZDL8bPmywgI+EiOcMaihqnRi/2aK69RadqiHCmNyQukIevzoESAGValH977B/JQh64XZIHH+/jOzBERViEWZTH8xm4wnpRzpZ1PLMJihKrVgarlYVERusA/MyaK733wNaEGOFcB5eA/z1M1iNtjIfz/JTAFZlXDO7mcok3pJBanxGMRQpTpfsbuSMzj3qU/XSLp47ixABTmtX54+om+unMS8daOYEdINZgxlIKu3z9n9ajQWXsavli+HU5fQnAGqTJtWzKcWIYGyp7VtXrcGcILcohe/PKM7V09h/rqrPbPACBtprr8yW0BYb52z+/n9d7Ov8Y7UOfvBbWjhCtkoH3vhGI0ZlMvbb7Keq3NXsJ+fPQOUILfq1Ytf6O71M5jLbhKzQur8ndnCjAFpvWCCc16FTm+QIzp5YBv16thK1tV6UkwXunXjOkAEyZoq9+2Nc5jTMneQY8aAtJ5etZuM8ZL57HHdMFghSa1aMJ2a1AuQDepNg+rQ2hVLAR/II3rz+hV9e/M85ra78t8FdkjNa2YNiOux7XiDUfhG9dTyJbSs/wldPL4XAxX68Fzt3BEa3C9F1tX6gP6ZdP/HHwEdyOOAR7Eb94jZwQyRWL0/Rf93D1h4ePjfCQ/7mJSD3bxyAQYp9IEq9myk6JaNZYN6RGg92rtjG0ADeQ/wb14LgL+I+e4GMUNsbM8fY/aAwHKes/tVGyH18IflZWBwQhaNIqaL/bLlAntRdjo9evgAgIG8X81OBDxW8O4Qs0QS8AJ7QGC58tlrGgLNvoY3kmlv6IUM/aavLlbQ6AE5skG9mTmQtm/aAKhAylvB3wTg3XGMJ5UeJ7JHYBBILMN2fJDJeMqqFnDNGigvC31QlKZPdDvZwJ4R34t+vPcDYAIhyE7j5WmZLdblaY2nsD3v7lW7yVgo5WwnDC/GYIRE7Vy/hFqG1pMtb/3zubMAEEgVgL974yx8gotitkj3fzcWgsjujI73NTy3fMjd2jQVC5JgIEKzJ4yU/qbtBkVGNKFLF84BHJB68uBfvkBPeDcUu2LGSGzPP0f0vBuMiP5k9jXukdqORxU66Oa5o1SUkSjbNnxJQQ5askKq1MsXv9A3KFXrcvU6qUUDM4nZBEK7FB1vTJByuuOGFmLw6Vznju2mWJmqzYXV8qU1y5cAEpDKa9E/pW+ufAl/4YKYNdLR88YEENrZIDqT6X8FmQyPLB9qdEQjunUe2/F61v4tq6h1gyBZwN6xWThdvnAecIA0oZ+fPILPcGV7XmANM0ei9/sjZhRI7aba8cF+1WgvouN1reXzplJYbZMsYM9N60tPnzwBFCBN6cnDH+A7XNCeTStE9qD2vDuC6HwNHaSc74iCLAw2Hat8cL5s5+tzpk0GCCDN6tEP38CHuCBmj2TteYFVILad1jQw8K9mX+Ndy4fI27DXTh/CQNNjYYmzhykrvrssUG8UGED7du0AACDN68c71+FPnBSzR+ookFnFzAK57dqON0yScsKrF87AINNpYZqY9hEypbk1ppvXr8HxQ/ooU/v2DcrUulTSeoaN2vOGSSB3VWD3r+ZrNhlfW1UGi+uKwaVDHdu9gdqFh8hTba5PLD356Sc4fUhnveBf0p1rZ+BfnBSzSOLs/TWzCwSvPIhui+WDa1jXj04f3o6BpTNtW/M5NfmklixgLy0ZQK9fv4azh3SaIveMvkaKnFNiFjGTJAC/BQS3VWLWt3orKUc8tbQEg0pnWjp7EtWv+ZHboS5MQFr82Rw4eEj3evroHnyNk2ImSfuY6q1AcgtLCgz8s/BwLlvlHDcNQ067zjRp5EBZVusN6/ojcA6C3tODb2/B5ziZ+85skvAzl5llIPqHlej6STnkDUvnYjDpSENy02UBe8v6n9DF82fh0CHofb19S9/dugjf44SYTTYq1/UD0X+vRBdY/X9IVaJLj+uGQaSjb8I5fWNlAXvnFo3pzte34cghSDLA7gXdQQ16p8SMkqxcJzANZH+X+jbdqrZ3wEd0Yv9mDCA95LCfOUx9u3eWBexxUR3o4YP7cOIQVIl+efoYvsgJMaOYVRKpcdMRROdfI8Dsa3hj+XBGD8jB4NGBLh7fSz07tJQF7FmJvdHRDYLs1OMf78InOSFmlURb2DfMNn3D3WTYZflgmpvr0JVT+zFwdJBSEtkiXBawD8rNRqobBDmoe99chW9yUMwqZpbE9vwu3YI9xGRsL1nje2IpBo3GVbF3E7VpKE9Xt9FDBtLbt2/hrCHIQb15/YruXDsNH+WgZgvMkvJFzDjdgb2kpORvzL6Gc1bBT80a0FcXKzBgNKyju76glqH1ZAH7lLGj4aQhCOfvHhUzi9klsT1/jlmnr+14v+pdpZzzusWzMVg0rEPb11KL4LqygH3e9KlwzhDkBj38/jb8lYNidkn6JoF1ugF7VFTU30oVrOkd2RaDRMPav2UVNf2kjixgX7ZwvrqClx49ohNHD9P6lctp5qTxNGpQMQ3on0n9+sZTdlJvUYWZqTR8QAFNKisV72/fzu1068Z1evPmDQAEyZ7//u3N8/BbDooZJlXYhpmnC7gH+xl6STnoneuXYIBoVHs2rqAm9QJkAfvKJYsU7yxfvXxJe3dsEyHevkmYS/fboLaJekd3pImjR4oV9549fQIYQW7Xy+c/C3MX9ecdETNMsue7wDztF6wJD/+7IJPxhuXNp/WKxuDQ8IBvFFhTFrCvWbZE2fW7nzyh2VMnUcsweYIHWaEBH1FmQpz4LNDlDnKnfnrwPXyYg2KWWUfOG28w+zReZtaQKNXM4+C2tRgYGtSuL5ZSeF1/WaC2dsVSRTvGjWtXU4RMgYO2FFbLlwbmZNHpL08ATpBb9MPXV+DLHBCzjJkmUZY2Qbtn7SbTX8wmw23Lm85NjsWg0OJW/KYVsq3Yv1i1QrHO8Pkvv9DA/pkehbqUErpF0YE9uwAoyOX+79+gPK1DYqZJVK27zQzU6Fm7Mc0qD9C/upjzjAGhLR3Yulq2XuxK3or/6fFj6tmprdfB/r6SYrrQudOnACoI7WE9WMeD2WZ99m5M0+JZ+9+bfY13LW+2IDUeg0GD6W5yRcUvXfCZYh0gB7bFRrZXFNjfFwfzcQwAYAVJiQs/Pbh/n65duUwVhw/R7u1bacOaVeKcm/PpFCodlC92bRzUL5mKMhIpPyWe+if1orzkOCrMSKCB2X2pJCeNRhRl08QRA8RiZMvmTqGNyz+jwzvW0ZVTB3TlB5lt1nnvxrvMQs23dA32q0YVezYCiBorUCNXHvuC2TMU7Rzz05MVC/bf1bpBMB05sA8w0+PZ+fffibEY2zZ+QfNnTRcrOXLKZfd2LcWWyFLnxO5Ws6A6FNuxlfhFYO6k0XRg2xq6fem4NlfvAtuYcZpuCSuu2k2G7y1vkr/5AYja0fF9m2SrPDdrykRFO86VixcqHuzva8akcciX16A45fLKxQu0dcN6mjl5ghj7wcdEDWUKanWH+Piuf2JPcZV//exhTflEZpzE2fv3mlm9B5kMSVKr9mO7sWrXis4e2UntwkNkmfyTxoxStEPlrcxGH9dSFdx/75r387NngKJK9ejhA3EXZuHsmTQ4rx91axshec6rJvHKftKoQXTr/DFN+EVmnNTqnZmoerAT0Z+kqtEhQl47uvTlfoqOaCTLZB9enK94J8vbm2p1pr06t6P7P/4IWCpcL168oLOnvhTPvznVsVPzRqqGeFXq1roZfbl/q2Yj55mJzEa1n7W3lXp5HHQFMKpfvI0W16m1LBM8Lz1Z8VvHjx89pPoBvqp2pNGtmom7D4Cogpq3/PwzHT10gKZPHEdJPaLFQkVahrmU2jYMFttCayHAWOr+mI0q35I37rO8qdSeUQCjBnTrwjHxXcoxsVN6daeXL18o3gkvmjNLE460R4fWYhofwOqlVqvCl1gOduNYiPgunVW/ve4uxUe104SvTImJkqpat0+9/dr9qteTemHb1i4GHDWgvJTesm0VP3v2VBVOWWk57a6I74XPcQFbz0Wvc+Ogwqw0avJJbcDcVpbMtLGq95XMPMl+7wIj1bolv8zyZjgNAmBUv0YUZssykTs2C1fNGTBfp9YcabvG9enUieOAr0y6feuWmNLJjX8AbvvUoUmoJtLlegnsk9iaX6Y+sNf+6P8z+xreWFUXWzQTcFS5Zk8YKU+krDlQcH43VeOot23aoFmHOqQgl+5+8zWA7Bag3xRTOTmfHLB2TlrY7WX2WRe1MbxhVqqtretEq1VZ0zDAUeVa+/ks6dQOF8VtTDkaWE1Om4OdtOxQ+dyX86RPVhwDpJ0ItOTaB/FdOgHObhDvFGrBfzIDJdrBTlRP0Zratf/VbDI+tbyJ2RNHAZAqbwTToI7J7ROXK2Nxr3O1OXA1VKRz39ZoA5o6dgydOl5Br1+/BsAtyrY+/PEHun7hDG1Zv4Zy0/pSSM0agLIbpZXjXGaghP97ysxUy1l7gVUVonoBdO30IUBSpTp5YBu1CAmUZeKu+HyBKp26Xs9NG9erRQUZKbRyySK6fOG8ZivdvXzxgp48fkT3v79LX9+4QpfPCPPg0G46sHUdbVo2j5ZOL6eZo4poXHE6DclJp/bCFyCAWB7xokILfpQZyCyUOHsvUEOp2b8z+xrvWF78yOJsQFKlunzyAEW2CJdl0o4dMVS1zp/zw+F4DWJp0+Se3WhC6Qix0cilC+fEoiuOl059QY/u36M7t67RFQGkp4/uo2N7ttK+Tatpx5rFtGXFfNq4ZDatWzidVs+dTMtnjqMl08bQoskjRS2c9LtGiFow0VLDP9D88UNpbvkgmlVaTNNH5NO0of1p0qBMmlCcSmW5CTQmp0+lKi/KpP5JcRRWyxfjwAO6eHyvJvwps1CiocwdZqey099MxvZSpWZ55QdQqk9fXaygpK7yrFC5aYWaV31twkPhdCs5auHMB37H40YOpeWL5tPBvbvpzu2v6JubV+nU4b20+4vltGb+NPps3BCaOCC9SpgqReXFWZQW2w3v2cPiznJa2QWViltidiq7aI2vYaNVDes+PQBKlWpYfro85SXbRqgml92WGF5wupUHSfaJ7kRFmck0QhhHo3P7qgbgtqCe2D0S79ZL4pgfrfhVZqLEPW5U7pZ8gPHfpdLfNq9cAFCqUFw8Qo5Jyu0lv71zR/Vnsj3at4LTtdieT+jSiUr6p9G4QTk0tiBZ1TD/XWOL0ikzPgbv2Mva9cUyzfhWZqJUWhwzVKHpb8bBSH/ThnasW0yhAe6P+OU67OdOn9REwFVSTBcUGGkSRv2EVcjQ7AQq7ddbEzD/XWX5yVSUnqTLuu5K1P4tqzTlY6XT4oyDFQf2kpKSvzGbDF9ZXuyn5UMBS5Xp9KFt1CK4riwTlAOutBJNzYVe9OZg+aywS6smlNWrMw1O7aEpmL+v0sJsigj5GFBVkCr2btKUn2U2SvR6/4pZqrSiNRGWF8pRpBdP7AMwVdblrVubprJMzvGjhmkqVWrup1N14VRD/KtRdEQ4pXRpTcMyemoW6OK5emEq9Y2JAkyVGC2vMZbw/UhlWjBLlZXb7mtYbXmRBanxAKbKlJ8SL8vETOsdo7l86F1bN2t7y71xCPWNaknDM3tpGui/a3RxNjUNqgOQIs/dY2JGSpy9r1ZOhLy//78FmYyvLC9y+zp0f1OT5k4aLQ8kmjYUy3FqsauX1pxo8+C61LtDcxqU3E0XQBehnptAhWkJgKiC1alpA036XGakRCvYV8xUxVak69CkPoCpptKyG1dQ/ZruDxziCOprVy5rtvSoFtLh+By9a8vGlBPbUTdA/6+guRSKR4c2xSs9tqtmfS+zUpEV64joT2aT4arlxU0aNQjQVMvZz/G91KZhkCyTcuuG9ZquKz68OF+1DrNZUB1KimxFQ9JidAf1d+fraRQZ0RjwVIFGD8jRrP9lVkoE1l1ltnp31e5vDJdaCZw+vAPgVImSe3SWZUKWDx+i+aYh+3ZuV52jjI5oQv3jIqm0f7wuof577nq7RqgwqBYtnT1Ju9lJAiulKtYxW7173m4yzrW8KIYFoKkOjR9WJMtk7NM1kl6/eqV5uL98+YIaBQaoohxsXOe2VJTYVbdA/2MrviAVTV6QBqf8BZbAVq+BPSkw8M+C03hgeVHL500FOFWgrasXik7f3RMxIrSeGGyml5afg/P6KdYpcqpNemwXKknrpXuoi2DPTaKYDqgsqCY1+aS25n0xM1PiC/kDZqyX6shXb2V5QeF1a9L1c0cATxWcs3MZWDmCs04cPayrft58v0osBZufGk8j+wHo7ys3OR7ARDCd8uqLCMxkdlrff/VW3sptn295MYVpyG1Xg3jCyDER53w6RVdg/13cCEcZ+cB+VJCWSKNzEgFzSxVlA5Yq1PTy4brwyTZy3ud7HOxRJtNfhD/+2Kq86PJ5gKfCNXvCSNkK1bx9+1aXcF+zfInXoT4gK5XGFqYB4lLb8XlJ1CY8BLBUoQ5sW6MLv8zslLj/x8xaT+e2t7W8EK5Hzv2/AVDliidKmAyNMHiL//6PP+oS7Kznv/zilepmITVr0MB+6TS5JAcQr0RDczIAShWqZWg93fhmZqdUTw9mrWfhbjJ+bnkRQ/PSAVCF143v3KyBLJHYFYcP6Rbsv2tyealHHV9qbDeaXjoQ8K5KuYkUIUN8CSS/BmQm6cpHM0Ml/OvnnuvbHh7+92Zf4xPLi9i5fgkgqrKB4w7NnDRe92Bn3bx+zSMOr3WDYJo4rFiAVgLAbY+K+wGUKtXqhTN05aOZodbn7sYnzFzPdIDzr95Rz9snatTmlQtkmXyJ3aM01xDGFXVv11JWZ8fR3uWFKQC2AyrKSAIoVajwuv66zLxillplIQnM9dR5+zLLPz4kF1vyStXlkweE1Z77y8s2rleLvr1zB1B/T1PGjpZttT4iB1B3Rn17RAOWKlT/xJ669NfMUolz92Wyg71tYOA/BpmMz6xqiK9eCJCqKMXCHdq28QsA3UIH9+5xf7W/6PY0PCsOoHZSkS2bAJYq1LTSAbotLiZRre4Zs1fewjV+1TpbtYk010GUvEK1esF0WSZeSUEOYC6hhw/uu7EQjR/17x0NQLsKdzSHUV9Vunq1qCwnkQ5uWqY7n80sZaZaPReBvR6vJT8gS1sRjbcvHafTh7fT4Z3rac+mFbRv80o6tH0tHd+3ic4d2y1GnSv5+r/cv5U2LJ0rFn9oJkN6Fvdnf/bsKWBuQ83MgS4/43bhwTQouTvg7AZ1adMcwFSZsnq/64EwcUAaXT99UHeAZ6Z6vNa82dd41/KPrls8W9UPksE9rWwI9UuIofaNQ8Xc4Srzi/2rizWP2zcKpW5tmlKf6HaU2bsbFab3oWF5GTR2SIH4mZ9NLaOlcyaLz2jLqgW0e8My8e8d272RTh3cSmeP7qKLx/eI5+JXTx2kK6f2i6Vh+UsEdws6eWCb+KXi6K4vxJ7rW1YuECNIF3w6jqaWltCo4n7itjv/fb52OXqyW5aXPXvqS0C8EsVGtnfpGfdo3ZhG9esNMLtJnDIIYKpLo3KT/3h/q2aN0x3cmRcSUfN3ZQN7fb/qtawaU9Q2qTKi8eyRnTRuaCF1aIK2j47o0wljAfAq1K9vH6eebf2AGpTSpTWA7GYNzE7B3FWROjUNs3qHpw9s0hXcmanMVisfITBYrij5Auui/l1U9dDOCFAvykik0IAamEiOrig7tKZXL18C4FWoMDPV4WfbrF4tKk7sAhgjz133GphhvWs1Z3ShDvt/dJGKmi+Qa0t+r+UfmzdljGrO0aeUDhaDlDCBHFdowEd09fIlwFsGuLdt8AkNz0BLVtmUlyh2ycM8Vr4a1vGjslzppkf7NuirSBqzVWJrfq/bwd4yyPgvQSbjK8s/xufCSn9IfH6d2LUDJo8Lmj9rOsBtpwoy7N8G7h7RgEr7xwPAMiujdwzmsQqUEWs7O2TK4Cy6deGobuDObJUIqnvFLJa9Kl231s0U/4A4GK1NwyBMHBeU0A1V6BxRVmJvuwIyU6JbAbye6gpXnIW5rAKV5iVX+h63Lpulq9U7M1b2anVmX+Msyz8yemCOoh9MxZ6NYrcyTBrnFVbLl27fugloO6CuVfR2b1jHRHm9OwO6SImD3lNcp6q/7E4oSlF8KrI7xYyV2Jqf5e789q8t/winZSn1oVw7fUiWDmh606I5swBsB9Xo41o2n2fzoFrIX/daYF025rSCNTKnr13vcePn03UD9y1SPUEEFrsN7KEmo59UCtzNc8o9/+if1AsTxtVv0lEdsB3voB4/emg7cK4hB87FArJeVFxkO8xtBSoqorHd73B8UbJuCtswY6VS4pjJ7jlvNxlyLT88uUdnxT6QtZ/PwoRxQ3T8jatXAGw31Zbv2qIBlaIwjddVPiBLLMSEOa6wojUFmQ69Rz2t3pm1VufuApPddd6+3aqYSflQRT6IWxeOYTveDZrz6RTA2gnNmDTO6ln2bt8MYEULWMiGOjdvRKNzExx6hxOKU4VVrT7awTJrJc7dt7sM9qioqL81m4xPLT+cS6gq8UFwWVZMGNeL1bx+9QqwdkLJPf+r1Kkwbyi1WzsAVWmR87lJ1KlZQ8x1pUTIF2Y59R63r5irC7gza63gLjCZ2ezaqj3AWNfyg5t+UkexDyKuU2tMGBfEQDp/5jRA7YQe3L//x5Zvg1q+lNs7CjBV6vZ8USbVD/DFnPd2qdnmDZ1+h1MGZ+imGykz13pr3ljHNbibDBlWhQbiuio29Q0TxjWNHTEUoHZSK5cseteu8pPaNDAlBhBVuIbnZ2LOq3TV/rsObFyqC7gzc60XYoYMV+vJL7P8UG4lqsQHwOVlMWGcV5uGIWjl6oISu0eJdRWGZqLinFrULzEWc99L6tKqmcNn7VY158cU6wLuzFyJOvPLXM1v/8byQ7m/uSIL7cehtaMr2rtjGyDtpPgoo2OzBjSyfyKgqSYJcOkdhdLU3tCYAdlueYd66BjHzJXId//Ghfx2039YfmCjwJpiExYlPoAWIYGYNE4qN60vIO2CJpUOF0CRBFiqMcAuP0WM2IYf8GQNjfZue38rZpRpHu7MXGavdb676T+cy2/3q9bN8sNSYiLVU2QfskvhwqD54btvAWkndfvaJSrL6wtQqjnArjCV2jUKhT/wkMqLs9z27sbm96UbOihJy+y1CqoTGO3clryvcarlh00Ypswzjh3rFmPSoMSsx3X94hkaWwCwayOCPp0i0ItCdmUnuL9K4641CzQPd2av9fM0TnX2vP2U5YdtXP6ZIm981YLpmDjOBLW0bo6cdid16XQFledhK15rKXIt66OLpJy7hLxL4u73NmtUgebhzuyVOHc/5fh5e2iNfzb7Gt5YftiVU/sVeeOLZqB4jTM6fuQwQO2EzlYcpDIXI30h5a7g2zYKgX+QQSU5abK9t7OHt2ka7sxe60p1hjfMasdW7f7VmlmXCWyo2BufP7UMk8dBDeyfCVA7oS8P7AQENX8Gn0admoXDT7izYI3wPMty5csm+WLhFM2v3pnBVs9WYLWDxWuMJZYfUpiRoNibXjBtLCaQg9tj9374HrB2UEd2bgT89AL4gmTq2bEt/IUCg+ikNHlwlubhzgyWqCpa4mCzGMMayw+ZO3m0Ym96+bypmEAIopNVB7auA/R0WIc+NRb1M1wVFwvyxPs6secLTcOdGSyxNb/G0ZX7dcsP2bNxhWJvesPyeZhE9nZhatGYXr18CWA7oL2bVgN2OhVXURuQlQzf4aSaBwdSWUGyR97V6jnjNQ13ZrDEyv263WBvHhDwT8I/+vX9Dwjxr07XFdxiT6pzDiStfbt2ANgOaPcXywE5iEYVZVOD2ib4EIfrx2d77B1NGphBXyu0yJo7xAxmFls841+Z2Xau2qsFWb6gqIhGqoskhKyVHt8TwHZAO9ctBdig/yqYUpxJHZo2gC+x19/07uHxd/Tlvg2aXr0zi61X79WC7GwWY0i0/Mf5KfGKv+nm5jqYUJWI25Fev3oF0LZT21d/DqBB1oF2+X0pPa47fEoVigj5mMoLUjz+ftbPn6xpuDOLrZvIGBLtPW+fYtUJbuwwxd90fHR7TKpKVDZ0MKBtp7auXAiQQZW3jM3LoLBa6AlvszFMUbZX3su0If203SFOYLHEufsUOyPljXst//GWVcov7zdMmGyYVNJqXK8WPX70EOC2Q9tWLQK8IDsL3mRQlzbN4WMsd3pTvVvg6fzRHZqFO7PYOmLeuNfOlbvhoeU/vnB8j+JveumcyZhYNrRg9gyAG1vxkCzpcolUlNGXV0/wNYK6tmkha7Eae7R95VzNwp1ZbL1yNzysEuzhAcZ/t/yHzYLqqOKmv9y/FZNLQu0a16cXL14A3lVox5rFgBXk/Cq+OIsiIxrrvjjW2OIMr7+LBeOHaHprnpls9ewFdlexaq/e0vIfxUe1U81NtwtHTWhLbV63BvCuKip+7RIACnLLKn5AVgqF1KyhS18z2kvn7FZZDXlJdOv8Uc3CvXdkW4nVe/WWVUTKGwss/9HgfimquekBmUkA+nuK6dgG8K5Cu9YvA5ggN6/iM6l3VAdd+Rr+UqOkd3B0x2rNwp2ZbB0xbyyoKlJ+seU/mj1hpGpuejVav36gY4cOAuCVaM+GlYARJJtKC7N00SM+qUekWMlPSc9+/QLtpsQxkyUi5hdXFUxXYRUpv3KBeir4nDlMYagiJSqjTywAjlrxkLe36vP6iqtarabNiQF0+UmKe+5zRhdqN2J+5QKpoLqKylu9+hp/tPxHpw+pq09uehwaPbAunjsLiNvq7rZrM8ADebyNbFafnpryMdz3vrwwVaHxDwl049xhTcKdmWz9Pow/VlVT/oN/EBbwkepufOH08boHe2FmKiBuQyf27wBsIK9G1SfHRKvexzQzB4p5/kp+1lo+d2c2WzXpsVVjPiTA19/ylyNbhKvupi8e3yNVXF9XZWZvXr8GkEvo9JF9AAykDMgPyKKk7lEqBXtdAeyZin/GXyyYqlm4M5st3wszXBLuwf7V2lgV/o/tqsobT+7RWbdwH1qYC5BL6NzxwzRGYUE/EMQreTX1jG8aVEf4YpKpimf7WflAzcKd2Wy1sBMYbiuYLsPyl0cUZKnyxvVarS404CO6e+cbwNxCl08fF8/gABNIuR3nMigvJZ4a1PFTrH9pFWYW0/xU80wLkun2xQpNwp3ZLBFUl2ErDW6cVRrcxFJ19r09e5jC69ZEcxiIbl4+R+UKjOaFIMlAsPwUGpKbTu2bKKu1bFTLpooNnqtMZw5t1WY6nMBmiXS4cTYaxhjWWP7yusWzVXvzRRmJugJ7/QBf+uG7bwH09/TNzas0rjAF0IDUqeJssb0sz21v+hYOACzLT1blM9y9doEm4c5stm4gY1hja+V+0vKXD25bq9qb37Z6kb5W7cNKAPT39P2d2zRhQDoAAWlgNZ9MIwuyKD6qg0cb1PCXiqG56p5DK2eWaRLuzGaJlftJ6Rx3k+GR5S9f+nK/qh9Ax6ZhWLXrUPd/+JYmD84CGCDtgb4gVQR9Ss8u1EDGgl3xXToqPtXNHs0cma9JuDObrd6bwHArsDcNDPyrVZeZuv7qb2xfPhxn7TrT4wf3adqwXIAA0r7yEsVo+4HZKRQX2c5l2POuQGLXzlQ2IFszz6g8L4m+uqDNoDpmtFU2g8DyD3PcTdVqW/5S5+YNNfHtRqtlH7Fqt9azJ49p5qgiOH1I101rRhZm0YDMZPG8vlvbCGrdINgK/JxZ075RffFLQX5qApUWZqsyYM4enT28TZNwZ0Zb5boLLLc8b29n1QygeydNPIDC9D5YtetAL57/Qp+NGwIHD0G2xOmgOkwJ3bdhsSbhzoyW2H1p92EBG5Mx3qqEqQBFLTyAPRtXaBbsXInv2zt3dA/2169e0ZJpY+C8IQiy7hA3X5sd4qQWrsxyizS4avmWvzR6QI5mHkJsx1aahPuQAlSje/v2La2ZNwVODIIgSS0YX6JJuJcW95dIh6uW/yHc/QxjLH/p0/KhmnkIK+d/qkm4o4b8r7R52Tw4MAiCbIozZ7QId2a0FdwFllukwRnnWv7SklmTNPMQbl86Tu3CQzQF9vz0ZN2Dfe/GlXBeEARVqZvnjmoO7sxoiTP3OZZwX2f5S5tWzNfUg5gxdoSm4H7h7Bldg71i7zY4LQiCdFuGlhltnetuXGfZNOaAlqrTSenqqYPUpF6AJsCeHt9T12C/cPIoHBYEQXbr4KZlOqlSZzhgmQp3yfKXzh7ZqbmHUT44XxNwP3rogG7BfuvqRTSCgSDIIW1eMkNzPDsjMFpiW/6SRbS88Z7lL10/d0RzD+PC8T0UJmPJRk+oR/tW+q4XX5wKZwVBkENaNn2M5njGjLaOljfe+wPsRPQns6/hzQdVz2p+pNkm90Pz0lUN903rVuu0rOyPNHVIPzgqCIIc1tyyAZrkGbPaojPcG2a6CPekpCiruvItgutqFu6nDm6lkJo1VAl2LiPJBVv0BvZfnj2lWaXFcFIQBDmlKYMzNMkzZrVVSfKaNf+bCPe0Pt3/0/KH3E1Nq3AXK/tkJKgS7gtmz9Ad2F+9ekkLJ42Eg4IgyCVpsYGMdOdT32oi3DNiutSy/GFM+whNw71iz0YK9qumKrCHB9akJz/9pC+4o/ocBEFu0oWK3ZpjGbPakhWhAUazCPfUnlH1tdo0pjLlpfRWFdzHjhiqu1X7jrVL4JQgCHKLKnav117zmG7WzWOC/Ywt3sG9V3Qjyx9mxHXVPNyP7vpC7F+sFrjfvnUTRWogCIKc1N71n2uOY8xq6xK0xrbv4B7bpbnlD3P6xmoe7qz+iT1VAfasxN66AvvlMyd02ZoSgiD5tGXpTM0xjFlt1S3Uzxgpwj0lNqq15Q+LM5J0AffDO9apYvV+cO8e3YD9zq3rNLagL5wRBEFu1Zp5EzXHMGa19bZ8te7vouV7RXW0/CHngusB7mpYvXdu0Vg3YH/44/c0eVAWHBEEQW7Xkmmj9FG3xVSt9zu4x0ZHW/6Q+8TqBe5KX70vXTBPF2B//vMz5LJDECSb5pUN1EVP92BTtb7vztxjIntY/nD8sCLdwF3Jq/eGdf3p6ZMnmgf7mzevacmnZXBAEATJpmlDtbdoZVZLNI/J+O3MPbK35Q8njRyoK7grdfU+alCxLlbtm5bNg/OBIEhWjStM1hy7mNXWK3dD7ju4x0QlWf5wSulgXcFdqav3i+fPah7sR3ZuhOOBIEh2cTdJrXGLWS3RGa74t235qHTLH04bM0R3cD+8c72iVu+9OrfTPNgvna6A04EgyCMaXai9QHFmtXVAnXHobxXqovtZ/nD62GG6g7vSVu9rVyzVNNi/vX2DxhUkw+lAEOQRFaTE0tkjOzXFLGa19ba8sfS3bfnIAssfzhw3XJdwV8rqvVFgAP387Jlmwf7k8UOaOqQ/HA4EQR5Th8ahtG31Ik0xi1kt0dN9/Du494wcaPnD2RNLdQl3pazeRw8ZqOkub/PHD4OzgSDIYyrN60sh/tVpwafjNMUrZrU1Q4xTK4H7KN3C/dD2tV6H+6UL5zQL93ULp8PZQBDk2S355F6ibx03tFBjcB9lG+6pPSPzsS3/obLiu3sN7D3at9Is2A9uWw9HA0EqVVl+imqvPTqikSZLq0tuy5uM4xBQZ0MHtq5GRTp3N4M5fRwOEoJUrMK0BDGdTHXXnpf4h39NiYnUUUBdz+g0pMJZKz22i8fBHlKzBj16+EBzYP/h7tc0rjAFDhKCVKz4Lh1pQJb6MlwGZsT/4WO7tWmq+VQ4YeU+BEVsKtGuL5Z6HO756cmaA/svz57S9BH5cI4QpHJFtWxK4YE1Vbc936tjxB8+tnWDIB0VsekZFWf5w4kjBuge7qz4qHYehfv+3Ts1Bfa3b9/S0unlcIwQpAE1M9cV/dSgfqnqKVyTmyRGyf/uYxvUMWmKUcxq6yI2hhw0jqlCG5bO9RjYW9b/hF6/fq0puO9ctxROEYK0oPfOrVuG1qOynERVXPfgzD5WvlY3jWP03vK1KnVp1cQjcB8/apimwH7u+GE4RAjSiMYWfdg3vLQwWxXXHde5tZWvvXX+mKZbvgor96TfztyjO1j+kBvAA+zvtGjGOI/A/cLZM5oB+3df36KxBX3hFCFIK01XirM+8FdJPSJVsNvw4Zb877p+7ohm+DQkN11i5V4t7reWr1GtLX+otVxAV3Tz3FFqERIoK9gjIxprLIAuDw4RgjSkUUXZH2b2CNAsL1B2YN2gzHhJf3vt9CHN8IlZbZUK51et+7sz99jI5pY/zOkbC7C/f64xvFhWuM+eOkkbcH/7lpbNGAdnCEEaEwfRWfqtUQVZir7mmHbNJf3tlVP7NcMmZrXVPfpV6/wO7r2iG1n+MD2uG6D+ns5X7KbQgBqywf32rVuagPu+TavhCCFIg+qfZA2RtNhuio6St+VvL588oJ16LAKrrbbl/YxtRbgnx0aHWv4wqVsnQN1DDWV6R3fUBNivXTgNJwhBGlVcVHvJ7pWKraaXEmvT5148sU8zXGJWWxVD8zc2F+GeEdOlluUPY9pHAOgW2rj8M5SbtaFH9+/RxIEZcIIQpFG1CjNL+q/yAcrcmu/QpL5tuB/fqxkuMast7y80wGgW4Z7ZM+o/LH/YsWkYgC6htg2D3Q7377+9q2qwv3n9mhZMQAtXCNJsw5g821vcHK2tuOC/3L6V+tyLJ7QDd2a1dUCdwSjCPSkp6q+WP2wRXBcwt7NggGtb8h1Uv2rfvmYxHCAE6SgN7n1l9empuOvNjOuiG7gzqy3vr37Nmv9NhDsR/cnsa3jz4Q8/AswldHjnerfCfdGcWaoG+5UzJ+D8IEjjKrVIg3tf0S2bKux6E6nRxzWrgLt2ztyZ1R8E0wksZ6b7/G5mX+M9LSf6u1OdmzVwG9zvfH1btWB//OBHmjggHc4PgjSuwf3TKu1kOSYnQTHXWpKdWKXfvfSlNlLhmNFWkfICy33eN7PJeMnyl84c2QmYS6h8cL5bwN6jfUv1NoR584YWThoJxwdBOlBmfEylvoy37ZVyrd1aN63S92olFY4ZLdER7qIF3A0HLH/p4La1gLmEdm9Y5ha4z/10snrz2TevgdODIJ2oS6tmlfoy3rZXxPFBXrJdvvfKKW3AnRkt0TTmwAdwDzIZ11n+Eqd+AebW+upiBTWu4kzHHl29fEmVYP/6+hUak5sApwdBOtBoYa6HBnxUqS8ryUlTxLVmVRFIp7Xys5Lp2QLLLbfl51j+0pJZkwBzG+rbvbNLYG/dwKxKsL94/gvqxkOQriLlM6v0Z/mpCviyL3wJaRTob5f/1Uo8GTNaYlt+zodw9zOMsfylT8uHAuQynbsPL8pTJdw3LpkDhwdBOm4YI6VUBZShHZjR227/q5WWr8xo69KzhjEfwD3Yt1oeerrbr6VzJrsE9z3btqgv7e3cSTg7CNKZijP72hEc3Mrr19kuPMT+Xh6Xjmu2lzuz/EO4m4zxlr9UmN4HILehXV84H1TH51c/P3umujauU0r6wdlBkM6U2D3SjmPGYK9e44icJLv9b1iAdmq4FKZZt7RllltsyxvbWjWP6Y7mMbZ0Yv8Wp+GeHBOtulX7hsWz4eggSIeKCPm4Sp8WHljTq9fYq2OE3f63ZWg97TSN6d7Jdke4362+X3Wr5jGdmzcEyG3o7NFdzqfATZ2gKrDfuHQWTg6C9BhMV5hqt1/zWvpbfl+H/G9URCPtFFQTGG1VelZg+QdwbxoYaFVfPryuP0BuQ6cP73Aa7mdOHlcN2F+/ekUzRhbA0UGQHtPgivvZ7de4uYw3rjElxrHMpfjo9prhEDPa8v6Y5T6WZjYZHmq1TJ8nigfYI96+evPmjWrgfmDrOjg5CNKpBmQm2w/3gmTPX2NeXwrxr+6QD+6f2FMTDGI2SxSweegjZWaT8SSq1Nmn5fOmOgX39LjuqgH7Tw/v0zhvTFgIghSh+C4d7fZt5UWe7zORERvleBpyfqaGq9MZT0rD3dew2vKX1y2eDZhLaOyQAufO26dNQBAdBEGqEO80KhbueYkUGlDDYR88pXSwJhjEbLZuGmNYbWvlPs7yl2dPLAXMJZTVp4dTcD+rkvP27+/chnNzNgipCJ3yIC2M40yHfJunx32/+G5O+WCtVF5lNkus3MdJwj3YZEi3/OURBVmAuZ1RilWpQR0/1Zy3L5sxDg7OSRWkJVFZcTaeBaRq8fa1Q3Av9Fx9+dG5fSmstq9TcN+2drEmGMRsts5xN6RLw92/WhurM+LYroC5hbi6Uf2aHzk8qBK6dVYF2G9ePg/n5kpqTnF/alDbBMBDqlZmfE8H4Z6quAYxUjp1cKsmOJQea/0MmOGScA81Gf0sfzmyRTiAblXAZrNTg2pS2Ujlw/3tW5o3tgTOzQVNGPyuJGRIzRo0ugiAh9SplvWDlAn33CRhblV3ygdzZD139dQCh5jNVtVPBYZLwr15QMA/ablUn7u0Ydk8pwbWLhXUkz93/BAcm4sqy0ukZubAd9+k/arRiIJMPBdIVRpblOGwfyvLT/HItSV37+j0qr19o1DNcChMog0vM9zHlpl9jfcs/8HpQ9sA9SoCGezRD999q2iwv3n9mqaPyIdzc4PS4j4MuBzcPw3PBVKN+Aupw3DPSZT/2gpSXWrYpZWS6sxk60h54z2fysxsMlRY/qMtKxcA6u9plANVm/6oZxwWpPhV+5cHd8OxuSvgZ6B1S+Dc5Hg8G0gl5+0xDvm3+gG+Hrmu3p3buAT3wf1SNMEgZrJEAZuKKuBu/NwqHW7CSED9PXGFI0cHVUafWEWD/dWrlzR1SH84Njdp3qTRkuOgb48oKsvri2cEKVrNgwMd8m/8+7JfV3G2S2BnTSsboo3dY4HJEmlwn1cOdz9jgVa/7bhLMe0jHA+mGzNK0XA/tmcrnJobtWjyKGrySW3JsdC1TQuPRhZDkEP57QOyHPZv7RqHyRvHkptIHZo0cBnuqxdO1wSDmMkS3eAKqli5V29p+Y96R7YF1N9Ty/qfODyoNqxZpViwv3j+nCYNQtCXOzVtWC7lpduuy90qzExji7PwrCDFqaR/msP+rXu7CFmvaZAT1ySlwzvWaYJBzGTrlXv1lpXCPbhW9f9j+Y+aBdUB1N+To40KWBfPn1Us3A9uWw+n5mZxTf4ln82pvKhRbROVIlUOUpjioto77N/6xkTJWvGR54qrYOfMlZvnjmqCQcxkq/sT2O1TlZlNxgeW//DC8T0Au6Bzx3Y7PKiE50nPhdWxMlftv9DEASiXKktQ3SD7+g8MzEZzHkghaZz5yU4tXvonxcl2TSk9u7pl1d6+sTbS4M5X7JZizAMfe8zsa9xrFTG/ChHzzrZ6bde4vmJX7Ud2bYJTkwvuDgQApfTsQuX5CLSDvFxdsdC5oDVuDSvLHCrKcgvYWak9o7QRKb9qgVQa3F774G6qNtnyH08fOwxwt5GCUKXj7tVdsRHyU0qwLSxf/esEatco1O5xEtmiMY0tzsCzg1STAve7huW5f9xyf/iIkI/dBvcRRdmaYBCz2HrlXm2yfXD3MyRa/uP8lHjAXdCKz6Y5PqgGFiozr/3ATjg0mTXYwUCgRoEBwoq/H54d5Pkt+ZxEavRxLafAKUeZ5dRe3dwGdtb8qWWaYBCzWCJSPsHelXuQ5T+OimgEuAuaN2WMw4PqsxnTlFeN7s1r+nR4Hpya3GlFhalizIWjY6Y4E1v0kIflRHGu3zV2gHvhPqowy61gF8t/f7FUEwxiFkus3IPsgvtvNeZ/tSy4f/3cEd3DfdqYIY63GNy0QXFwP1txEM7MQ+rZsa1Tzig+qgONLUA+POQZ9U+KdRqcvIXuzi/EjevVcjvcr5w6oHr+MIMlAh5/rbSmvETE/DXLh7Nn4wrdw33c0ELHWwwer1Ac3OeUDYJD81TecE660w4pov4nVI58eMgDW/K2ii5VpQZ1/NwapxIf3dHtYG/bMFgT/GEGS0TKX/NxxMy+hjWWHzJ38mjdw32kEyUQb9+6pSiw37p6EQ7Nk1vzRZku5+cO6p8qOj48T0hpW/KREY3ddh0Ds1PcDnZWWq9oTfCHGWwdKW9Y4xDcg/2Mgy0/pDAjQfdwL8lxvFLSs6dPFAX3VXMnw5l5WB2bNXTZQfXp2gnb9JAsykro5fS4TOnV1etfMKrSmEG5muAPM9j6y79xsENwD/Kv1szyQzo3b6h7uA/ql+zYllVtk6LA/vjBfRqDFaDHxXnA7nBSnBpUVoz0RcidhWuSxK11Z8ekO4I/y4syZDln/13L5k7RBH+YwVb3J7DaIbiHhtb4Z2G5/8bygy6fPKBruA/ITHKsKlKTMEXBff+WtXBoXmnGkelWZ1WU0Rdf0iD3RKYXuBaZPrIgy8UvFynUoWkD2cDOqtizUfXsYfZKbMm/YVb7OGpBJuMpyw/buPwzXcNdaluk8oYKLRUD9rdv39K0oWjr6i2524F1axshrnjwbCFX1Duqg0vj0JWdpLLcJIqLbCcr2BsF1tQEe5i9VvcnMNrHGQvyNU61/LAJw4qxcndgYCV0i1IM3G9cPAtn5s2t+axktzsuPvYZno+OfpBzGluU7vIY5JW383Xju8gKdjGlNLq9JtjD7LW+P+NUp+Ae7Fetm1XwREykruEu1Ue3MmX0iVUM3L/4fBYcmlej5jNkc2DJMdFUhmA7yEHx8Y4r465l/SCnU96yXQji02PZWWav1f35Ve/qFNwb+Bv+r9QWx+1LxwF3O1WYmaoIsL988YLGF6XAoXlZvJUulxNrHhwoSxlQSKPKS6Rm5kCXxlxCt0iPR+c7qqVzJqueO8xcZq/Vzp3AaB9nLchk/NryA/dtXqlLsHOrvSafOBbROTAnSxFwv3SqAs5MAeIGG3I7s6w+PcXWnXjekBwd4D4I7MxMcvCMPZHSe/fwGNhZJ/ZvUT17mLkS5+1f+7hiZl/DUqsOceXDdQn33GTHyzMOys1Wxpb8oplwaEo44yxIdapftqNq3SBYzBvGM4dsl0Vu7fI4K3Vgp4i/cLoavOdM6qgmOsEJzJWIlF/qEtyDTYZ0q3PkuK66A7tkpKIdGpzXTxFNYiYMSIdDU4hSenb1mHPjeuFYxUNW8R/F2W4ZX/a2KObf40p2ngQ7K7N3N03wh5lrVbxGYLOLcDfWsfzQpp/U0RXYuVh/+8ahTg2ukvz+Xof77euX4dAUVeoz26MOrlWYWfybePaQO6PUxfbEdtRaGC2MPWdbybqqaaNLNMEgZq413I11XIJ7VFTU35pNxqeWH3xo+1rdwL28JN/pwaWEM/cDW9fBoSlMvG3u8VVMfIxbu3dBal21u6egEnctrOp8vTAtwStQ/1071i1WPX+YtRLNYp4ym31cNbOvcbvlh39aPlQXYD+2ewPVr/mR04MrN62v1+H++ZRSODWFiUt2esPZcXT0qELkxeu7tWucW8ZSZWVnOe1TzswQexRWy5dunjuqegYxa63P243bfdxhwSZDrlVebY/OuoB7Qpf2Lg2w9PieXj9vH5vfF05NafW8i7O86vg4ham8CHEY+itak+G2gM4xRVk2y9mGS6RteVqJXTtogkHMWonz9ly3wD3UZPSz+lZU26SJb0WVaensSW7o5BXpVbh/f+c2nJoCxWeVHMnrTefH1e1K+qeJvbzxTnTS/S0x1m3jp7zww6JJZXlJ1L9vnNeh/kc11eHqr6bKjGXWWt4bM9nHXSaV775l5QLNgv3Kqf3UIiTQ5QHWpU0Lr8L99JF9cGoa3x51VRzFzDsJeCfar5BoNhndMmY6NWto8dmZFNWyqWLArpXzdmas2/PbJc7dZ1n+kdEDczQL96F56W474/Qm3HetXwbHptTVu4ej5qtSdkIsSthqWOlx3d2XYims0P/Yhi/MpoZ1/RU1lhvUMdGt88dUzyFmrMR5+yy3wj3Yv3pHq65UrZtpEuwHtq6mYL9qbhtor1+98hrcV8+dDMem1JVUfl8KqVlDUU6RU5a4it5otJNFXnslGlWULUbD5yT3VtT41VoPFGas1Xm7wGK3wr1lkPFfgkzGV5Z/6PThHZqDe88OLd060H74/juvwX1u+WA4Nw2325RL0S2bUtkA5MZrJb6ju5sj1/nLQvd2EYocu6yZ49RfRZXZKrEl/4pZ7ONuM/sa91r+sXlTxmgK7AumjXX7QDt76kuvwX3qEJQgVbJKctIV6yDFbI+47mJbULwr9WpkgXszM0IDPnK54YzcOrZ7o+pZNHfyaKkt+b0+cpjZz1hg+cfSekVrBuyXvtxPzYLquH2gbV63xmtwRxqcwlOT3FRQRE7VD/ClAZnJVJafhHemtpTL/BSvZ2V4Wu3CQzTBI2arFdwFBssC9/p+1WtJpcRxeVZNtHPtnyrPFtGk8V7LcYeDU75aqMT5tgytRyMKUABHTeIgST2BXeznIfhxLZQ8l0qBYwb7yGVmX+Ndyz+4bvFs1T/M/VtWuTWI7n0N6J/pFbi/ffsWDk4Fyugdoyrn2bl5I/SNV0WhpGzdgZ21fskc1fOImSqxJX/XR04LMhnnWsErM0n1DzO2YyvZBhvnf3prWx5OTvkakZ+pSifao30rESB4h0rcjk+ito1CdAf28Lr+dOO8+neSmakSwXRz5YW7X7XOln+0ubkOfXWxQrUP8vMZ42UdcFw44udnz7wC9/FFyFtWfnGRdFU71ISunagcRXAUth3fS5er9n4JMaoHO7OUmWp1fwJ7ZYV728DAfxS+QTyzqla3aoFKK9EdcEsluqp06sRxr8B9VmkxnJ0ausQ1VP8qK713D7F2Od6nl6PjC7N0CXYWlwxXfVW6VZJV6Z4FBwf/g4/cZvY1LLXqW56TpsoHOaLIM+dS82dN9wrcl35aBoenAnE7Vi04V25KwoVNyguRPued7IsMalDHT1GZFp76W6EBNcSy4WqHO7PU+rzdsNTHExbsa+ggFUmrtod4dNcXHqsQlpXY2ytw375mMZyeCjRcpefuNiEvzKvcvvHIkfdwxcPIlk0UMwZ6dWpHOSmJHvt7WulUyiy1qkonMNcjcA8PD/97s6/xieUF7Fy/RFUPsW/3zp4r6xkYQK9fv/Y43M9VHITjU0V50ExNbpPySp4b5KC9rPxV6LiNr1LeOzcj+vHeD9TMXNdjf3PRjHGqBzszVCJK/gkz18dTZjYZF1leBDdbUctDXLNopscH/Imjhz0O9wf3voPzU4maylBASSniNFNO+SsfgDx5OaSkGu+tGwTTt3fu0KnjFR77m2EBH2liS16qYRmz1seTZvYztrW8iBbBdVURNc89cts3CvV8f+HSEV7Zmp89GkF1alBi90hdBD1xdD1S6NxZwjhNMe+Wy9LeuHpF9DuTy0s99ncze3fTRJQ8M1SiKl1bj8I9ymT6i/CHH1teyIZl8xT/ECeXDnLrwIqzs/lHx2bhXoH73o0r4QRVoEHZKbqKbO7apgWNLHzXXQzv3zkNzVVOGmWTT2rT5Qvn//A7nuzvvnzeVNXDndkpcW+PmbU+njazr2G+5cUUpMYr+gGePbJTLHTgzsChb25/Rblpfe36/XOnT3oc7vd/+BaOUA3SaUUxrn0+UPhiMxa95FULdm4VfOHsmT98zu1bNz1auOb62cOqhzuzUyJKfr6PN8xsqt7S+kHXVHSt+cK0eLcOrNKSAeJg5q0oLlZT1e+XDSvxyup9xewJcIhKD6orTNUl3N/vNpbVp6fYThTjoXIN7q+crfjwwJp05uSJD/zN53NneezvF2UkaqKWPLPT+ry9ekuvwD0pMPDPAtAeqGWLZM/GFW7P4fzhu2//GNBDCnLtOJOqS8+fP/c43G9fuwSnqAK180IsiBLFKV3DcjOoLD8Z4+J95SZQv0TlNIPhLCCpAl1JMV08dg3b1y1WPdyZmRKBdA+YsT7eMuEC5qgl39Dd9ePHjxr2wYBm0DeuV6vKf/fFqhVeWb2vmTcFzlHhSunVFXB/Tw1qmygroZd4ZMHpXrre2SlIobjIdop5N5zd8f5W/O969PCBbE24LNWhSagmctuZmRJwn+PjTTP7G8Ol0l5OH96hqIe3dM5k9zqdOn50/8cfrQb2hjWrqvy3MR3beAXuj+7fo7EF6O+uZA3UWVCdoylW3Fe+vEh/6XRcu19JjWAiQuvR1cuXJP3MxrWrPXYdk0YOVD3YmZVSX4aYrV6FOxH9yWwyXLV66KMGKeo8o3WDIPcOqrJSmxDt17dPlf/+0L69XgH8lwd3AaJKLkZSlA2Q2xlpzylgmq+Al5dIhemJinr2bcJD6daN6zZ9TH56ssdqJ5w+tE31cGdWWq/aDVeZrT7eNrOfscB6u6S+Yh7ehGHFbh1UDev608MH920O7ns/fE/Ngz+u9DP6dI30WhvYNfOnAaToEKcZdW8bIYA+XXh22mpaw7UAIls0VtSz7iY86/fjjCzF8USeqm2f1itaE1vyzEqJ3PYCHyVYkL//vwWZjK+UGOjAqW8N67p3sE0bV1YlQE9/eaLKpgn7du3wCtxf/PIzzRtbApgqVEpq/KE2dWjaQFzpMhjLchJVugWfqahSsr8rNa4HPX3ypFLfsn/3To9dz/olc1QPdmakRAe4V8xUH6WY2dewWok574UZCW5P+3j86KFdEN28fm2lnxXdqplX6s2znv70mGaOKgRMFSjecgao3RPJnRwTTcPyMmhssfLP6fkaORXQnpRaT6skvz+9evmySr8yfECBR66nbcNgun3puFZz21f7KMmC/QwRVvV+a/nSxRP7vPbg9m9Z5faJMm18uUMQnTl5QqWft3D2TK9tz3OA3YyRBQCqwsQ12AFneUqjpsV2E4u/cC59WV6S97fe8/qK/deVFAVvEbFNcz6dYpc/efPmTZXHkW6LeVJQTJezYjYyI61jCQwRioJ7SUnJ35hNhq8sL/TT8qFee3h9ott5bdX+QW33qZMqjbq/+83XXgP8syc/0YIJwwBVlKHVnTggq0ub5pTTt7e4uud0Oy4k5Ime6yPys8RdBSnnrhRxWu/Bvbvt9iUnK455rG/7+Yrdqoc7s1EikO4rZqmP0izYzzjYqp560zDNdH2z56zdlpYumGfzc/v27Epv3771GuBfvniBHHgFaVQhIua9XSM9pkMrSo/rTkXpSWIxndHF/cTVPp+H8xcA7p0uuRLPSRR/PrYo411zHOHfDc/PpKKMJPEcvUXIx6p4Bl3atKDbt2455EfGjxrukWvLS47TbCAdM9RHiRYeYPx3s6/hjeUFb165wKMP7daFY9SpaQO3R8hzcQZXILpp3Wqb39TnTZ/qNbj/kSZ3YCeNzUcevBJymgFZdYm3r5V4Vu6MBuf1o5+fPXPYf7RvEuaR69u7eaXqwc5MlDhrf8MM9VGqCRe50fKis/r08OiDmz1xlPvPeCrJa3dEXPhBqlsSbxFWHD7kdcB/f+c2Ium9HVhVkApgQl5p/rLli3VO+Q3uBueJa4zr3FoTq3ZmosT9bfRRsoWYjO2lwHXygGeKDVw5tZ+aBdVxewlMqWp0zoq/FXP0qVTdeUe3wuQQHxFU7N1GE4rRpctb4iYqAA7kKSV0i6K7d75x2mfMmDTOI9e5asF01YOdWShVkY7ZqWi4h4eH/53Z13jH8sJHFmd75MGNHpDj9gFlWUPeXTp6cL+YDmfZ8/3Hez94HfCsJ48f0cYls8VmFQCuhxvINA4DdCCP1O6fP2u6GOnuiq/o4oH0Ta2kv42UaO3MzGR2+ijdpCrWNf64Jl07fUjWh3bq4FYKc/OKhwvRcMU5uQD6+tUrWvzZHHFL7P1gFnfuFLiqe99+g6p2HlbvqA6ADySrMuJ70Te3v3LZP3x184ZHrnd6+XDVg50ZyCy0hnu1fB81WHjt2v9qNhmfWt4An4V7uiCAqxo9ZKBniso8eUKL5swS6zaLLS8jmri0TSaHfvzuDm1aNg9Bdx4QFzMBgCC5mr44e7Yupc9mTPNABkMt2ReH3ooHY1YyM33UYkG+xgmeTIs7sG2N26NVQ/yrexywvJLniZfYPYpahgVJ9kr2tp49eUyHd26k6SPyAGKZVJiWABBBbt+Cnzp2DD356Se3+oNeneQvwDN2SIEmAumYgdb3Z5zgoyYL8fX9T6m0OM4/l+OhJXXv5PYBNbQw16sQ/eH772jlkkX0ZcVRr+bB25RwTbeuXKANn8+i8UUpgLIbNbh/GoAEua1YD5eFrazhi7PiAlxyX3+Y8KXk4vE9qge7VO0VZiSz0kdtZvYzLrO8mV4dW7n9oW1c/pkseat8lqQEiD7/5WdaOGmEmIf+8sVz5UFe0KuXL+jSqQpat+BTRNm7QcPzMwAmyGUfVpiZSjeuXpFt3n8+d5bs9zEsP10Tq3Zmn0T3t2U+arRQ/xofS72sbWvd2y2ua+umbh9QRdnpigHnznVL/3D6Ewak0671y+jhj98rEvLi0cLrV3Tj0lnasWYxzRxVBFg7oVJUqYNc2H4fM3QQff2V/Gm18V06y3ovITVriIHSagc7M0+ylK7ASB+1mtnXuNfyhlJiotz20JbMmiTLoOKiDEoA5f0fvqNyGw0uls8cR1fOnKC3LqaxyK3HD+7TmWMHxO17nNPbqWLAHXJMLet/QrOmTHS5kqbdx4bffSv7PRWm99HEqp2ZJ5H+ttdHzWb2M7aVemmHtq91+YHdPHeU2oWHuH1AZSf1VgwYV82ZVCUIpg7pR3s2rBS/CCgZ8r/rp0cP6OKpY+IOxKLJo2hcIc7rrWqUowQtZFcTlY/ErfcDe3Z5vH10Zf0y3BXQXLF3k+rBzqyTPDYR2KhquBPRn8wm4yXLG8tNjnX5oc0cJ0+jglPHKxQBwVtXLzoMhYWTRtLJQ7vpl2dPVQH63yvi/fjdXTr/5RHxS8qK2RPo02G5qC8PeEE2ztK5otyKzxfQ40ePvDZv+3SNlPU+ObVZC6t2Zp3EO7zEbPRRu5n9DIlSEZzHdm90oczsAbeXmWVxCppSItFdqfHOW/mr5k6mCwIwlRqEV5VePH9O3359i47u3qK7KnncfQwgg95vv1rcL4M2r1vjsW13b27Ju8oHpYjvQarULDPRRwsWHh7+92aT4XvLG8xPcf6bGec9yjGoeHtLCWA7W3HQjY1I+ootXc+fOCxG3qsJ8A/ufUfTR+Trb+VehGh5Pat58MfUPzlB7BbJqbCe3nL39pZ8XkpvTazamXESPdu/Zyb6aMWC/YzZkp3Q9jj+7ex8xW5qWNfP7QOqe7uWykgre/WSpsm0Lc0r+qXTy+n4/h0iOJUM9nPHD9GE4jR9bssXpQNyOtli79C0IWUmxNG4kUNp8/q1HolyV/KW/LtV+wbVg53ZJrVqZxb6aMnE1buv8a47zlU471GOQcUTSwkT58iuTR6DCEevb1k+ny6drqBfflbGOT3Xsudzd12fuRdhW14p4hbNbRvVF7fGHamC2bCuv1hOulvbCEru2Y0G9M+k8aOGi2Wm9+zYJuafv3z5QnXHZd/dvSvr83ZlR1dJkiqHzgzU1Kr9j5K0fsZUVyMiuV1eaEANtw+o9k3CFLH1xYDlXHavQCU3gT4bN4S2rVokbuE//NGz3em+unqR1i74FF3ocOauKFk2cWIgP3v6hB4+uC82leIujvfv3RN/76fHj+nFixeqjHGxV/zlRM689hP7N6t/1S4wjdlmdY8CA320aFEm01/Mpv+/vSsBjuI60ySOs5ukdr2bTWqTqq2treoewfRIAjSGad0jJEASh8QhTnFIRhICgSSQQBJgGZCFzGUwssHGEMDmCCCDue/7tjkM5r4xLNixwYZgjNH6bf8NJiB1j2aknpnume+r+soum2m6X7////q99x/c1YZEzhcNTnfLpFqyYJ4uDIfSw/QkMjNK8+R0vB1rlrETn+xjN7+4Ih8baBMw9z27dOZztnnFIr88V4e4G4P/e/26T4u1y7Xku7ivlvyr+dk+HCHPXSUNbOSrEC38AKVzpz0b685737flY8UzjIaytRgirZi9H2j23e2vjdFxTVpZz3p9JFsyazJbt2Qu271hJft09xZ28sgBduHUZ+zK+dPs+uULEs+zaxfOygJ+6shBdnjPVrZ99VK2Yt7bbHbFKIg48twNwUvnzxlekLVqIU3xAG6rId/UzI7t22x4YSctUzq+Ie1r5MughvTSg1+o+eCD+3arc9By03u5ZVK9O32qLgyQ2qlC2EBZ3EehQp1eePL4Zz6xlX5o394GX4ei9901zmXFeT6xaictU1jAXiDta+TrCLVwfZVe7paPF6kO2I51y9xWh5nOzrz+ZX3rBpuIs2YQteV1x0/27zO8uFMVu7LRRQ2+Tvf2bd0yxvaQQHbSBzq/kYYpZwBwfRv5A1JSUl6QHvhMzQFI69pBddAG9nZPgwJqsKAH4/to3tsQNfApxxUiz10v3LF5o+HFvX10GOsaH9uga5w7fcptYzx1XLFPrNpJwxSe7wxpXiN/gc0S0EPpJa9cOLvWgG1audBtOaZ6yCm9ee0yBA18jqPzsiGsOuGaFVWGFvafq8mRv2tIRtCMyRVuGd+2YVZ2/thewws7aZfiM0pa18ifINecN3Mnag5El9ZR7MqpQ858DTW8dvGQbF0Y31/fnQpBA5/j8Kx0CKtOqJdMmvpy45pVT5/ly1v1L1xFuf7uGN850ysML+ykWaRdtfPauRM+UUPeVYQJfJLSy549bcLTQVvz17+4zWiPHz3sdcO7dvEsxAysxQE9OkNYdcLZldMNLe509Pg08v/C+Xpd48ihg24Z205xkezyyYOGF3fSLMW8fUnjGvkrbAK3tVZqmq05O3t0lzxoqUnxbplU1FVJD4a36O03IGZgLXaICYOw6oRUFtbI4k5ltX9+lgvnztbrGq+PLnbL2C6fP9Pwwk5apdjETNK2Rv4MW2DjYNHMVdccmIpRw9nHi953m8Fu27TB+y1dz56EkIG10+AKMiGqOmLpiGGGFXbqIPfss1y97HqMEVXco9K7Wo9r306JPhFER1qlsB1fTdrWyN8hCtzMWgUNgpuwbgkxbjHWzm1i5B7iXs89fet1iBlYW9xRV15XzM1IM6y4b1m/9vlSul995fI1Nq9b45ZxpUBpows7lcolrVKoRjezEdCokd0a8AebwN3xlLEu/XC+143u4qnjEDJQOce9GNXp9EQqt2pUca94bfRzz1JdXe3yNaj1rNZjOqR/D59Ytef066G0HX+HNA3K/o+ytPmeMNQ4W3NdlJqdP60MQgYqcsSgARBVHZGixI0q7l3atnr6HAmRNpd//83XXys3QGlIcxjpege2rjK8sK9ePEc5xVrSMij6M8i0Wl9UKmyjNSsnv+F1g6P66xAxUI3UIhSiqh9GBJsNKezXr11tcBDxwr9oH/c0Jn+g4YX98ucH5Uh/pYI1pGVQ9JrBdeaARHcaKbUTbEiep3ar9vEQMVD5vL0wyy3NkcCG8d7du4YT92WLPnjuGcYVF7p8jR4af2hGNhPYZ/u3GF7cKyeUqjxjQCKUXDW4jl/vLgMdU5CHVTuob5agprwuO8PVMz/cm6x5Vk6rcFd+Tw1ztB7HitHDDS/sx/ZtYtEhFqWKp+uh4I7EPdBklgbpka92d8JZO+iIIwdnQEx1SC06qnmSDx48YFHNLQ16hprBeA1lbItgdvrwLsOLOwUDKgj7I9IuKHjdqXHTtTbOjF7eL1pz6cwJCBjokO2iQiGmOuS6lR8ZStx3b9/aoKOFB99/r3lu+7SyUYYX9qoFs1T6lHDTodxOIM5qfUk08ze0nFhbN6zTQV57OQQMVD9vL0EKnF45f/YsQ4l7+ZiS5+6/e7s2Lv1+9UfLtc1SatmcnTu6x9DCTs1tEiNtCgVr+BukWVBuJxFq5pK1mlgdW0XUK79TS145dwoCBjpkUQ625PVKvbSGdoZUoCshouVz90/lY125Rnp3bVtsUwCa0VftZSOVP75Jq6DYLted55dpMbEWzH7X6wa3+J2JEDBQnQUDWHzYyxBSnTI/K90w4q7U5IVW4t7q2051143e0nX72qXKWSySRkGp61O5ThD+1NDKdRRU8t2333o33/TyeYgXWEdVOkTJ65mUEmYUcZ9cNrbW/V+74nxN+fJXSzQdu+nlYwyf094tPka5Ep2kUVDqem/P8680ZGJNKB3ldWNbOvtNCBjokL06onCNnmm3BhlmS75mUCZt0Tv7+7vffVcryr5BEfItm7KzR3cbWtynjC1S2Y7nX4FCN3x7flt9J9fFerY41Iq3rl+FeIHIbfcBUilWvYv7pwf21brvoqGDnP79h3Pe03TMJpWOMLSw79m4Qi5+prAdvw3KrMXq3cLxopl74OrEGpyW6nVjWzH/HYgX6JCpyYkQTwPw6KefGC5Knrho3hynfktBxxR8rGU1upOfbDfudvzJg6xn+zildq4PSJOgzNo1lhnp6uTauWWTVw3t6y9vyoFSEDAQq3bjc1XVMl0L+8OHP8iNsepbvGvj2tWajlfp8MGGXrW/Ob5ErTHMSCiylsF1dvuvbAJ/1NmJlRwX7fWe7WuXzIV4gaqskD78uiXEQTgNwrenTDRU73ZidEgge/TokVO/79u5o2ZjJQo8O7RjrWGFfee6ZWrb8UdJi6DIWp+9B3FW0cxVOzO5Pnj/Pa8a2t0737BJhZkQMVCV5UUoWmMkFuYM1LW452e9Uu+jyQN7d2s6VtTn3KjCfuHEftalTbTSdnw1aRCU2G3b86ayOtPfmgns2zt3vPsVvXIxBAxUr0ZXkME6xoRDNA3Ezm1idCvsX315SzEPe3bldKd+n9Wnh6ZjtX75fMOK+7jCISrb8dx4KLCbt+dFgT/oaGKVjS7yqqF9f/8em1qcDREDVTm2IAeCaUB+f/++LsV9zjuVivf7yf59df728KEDmo4RrXqNKuzrls1XO2Y4iO14T0XPC/w9tcl19tRJrxra3k2rIGCg+qp9xEDWWgyBWBqQJ44d1WVue3JsVK17DQ9uIjeAqev32f16azpG700tM6Swn/pkR62yvU+E/R6i4z0p8AKfrljqULR61dB+/PEhe+vVXIgYqMrioZkQSoPyoyWLdCfue3Zsq3cnTK3P2in97exRY7Z1zenfU/m5BFMaFNfT5+8Cv1zpZSxb9IHXDO3wnm0QMFCVk4pyWESwGUJpUI4vGaE7cc/LTFO813fenFx3hHyXjtoGHWanGVLYZ08rV9uOXw6l9cr2vOX3opm/XuvrsamZnT97xvOG9n//x94tL4KIgarMfaUPRNLAdLV1qrt59fJl1Xs9tG+vw9+uWVGl+fgYMZCOqtBFBjdRauV6nTQGSuslhFkat5JexE+1jLB9W6fOm7Tk6WOHIGCg+qod/dp9gvfu3tWNuE8cV6q8PS4tcH744QfV3/393l2WGClqOi7tomzGS3v7bJ9i2htpCmkLFNbb+e8WbqLSZBtbVOBRQ5s/rQwiBqoyLSUZ4ugD3Ldrhy6EnbpdUpGa+pTepoZaWo9LeUm+4cR95KB0tbS3N6CsOkCKIPxaNPOHlV7SymVLPGJo1y6ehYCBKDPrB3xr0gRdiPvcmZWq9/jh3Nnq2Tw7d7hlXHatX24oYf9L5URlYZe0hDQFyqqX8/eggCY2gbuvtD115uTnbje0qrkzIGCgcurb8AzWubUdwugjTO3U3uvC/uDBAxYf3kL1Hi+dP6f4uxvXv2Btw1poPiYd7WGGKy+rdM5OGkJaAkXV2/m7me+jNPE6SY7Vnedk33x1Cw1iQFWOKxgCUfQxUkU4b4r70g/nu1xJj1rWUkCgO8ajbGSuYYT9zJHd8seI0nOQhkBJ9ZseN0PppRUMznKboW2q+gAiBjooWGOFIPoYvZlu++PDh6y9Xb108YzJFbV+c+nCedY1PtZt47GhaoFx8tn79VBLe5sBBdUxMq3WF0Uzv1fp5b3/9ltuKTU7pQilZkFlFuWgYI0vcmCfnl4T96rFCx3e26kTx5/+2Tu3v2Gzpk+RjyfdNRb2kEB2+fODhhD2qeOK1c7Z95J2QEF1jkir+c82gbup2ON962ZNDW3/ljUQMVA59a04Ry4BCjH0TV6/dtXjwk7pbe2jwxzm4VMU/dqVVWx4doZHCibl9OtuCGGvWjBLpQIdd5M0A8ppEIQLAZGiwD+q+SJjXm7KLl+8oImhVVc/Ym+PHQYhAxWZ078XRNCHqbT97W4umjfH4T1RzwLFPuRu5MxJ43Uv7Pu3rmL2kCClrfhHpBVQTKPlv5tNuUqTkc6etAiwO3l4P0QMVClYg9Q3X2erFk09WtCGCs+0CX1Zd+Owfe1S3QfQJcdGqNy/KRdKadwAu4VKL5XqMVdXVzewaM14CBmoyD6d2kEA/YCVk9/wmLhTrXi9PX9Uc4FdOXVIt8JO9zawdxe1ALqFUEgDo4PV+lvRzB1XermTy8bW29CuXz4PEQMVWV6MVbu/kLbAz50+5XZhv3njBotqJuju+ft3bqfrVftrBTkqAXTccdIGKKTR898Dec4mcHe0TGn5eMEsCBlYO/WtIIMlxURA+PyIyXHR7G9ffem2tLcDe3ax7L76jN8YW5hjuE5vpAWkCVBGnzl/D0iUvtaqa77oUIuJ7d+90yWDu/vtbTaxMANiBtbia8NzIHh+yA7SB93OLZsafNT3uNPbJTndrSh3sBwArOfnnlc5UZfCvnrxHNm3K6zYq0kLoIi+JvAWfpBaYMzFc2edNr6da6sgZKBCwZpsFtuyGcTOj0kBb+OKC9nGNavYuTOnHXZmo5S10ydPsK0b1rF3p09l+VnpLCGipaGed+OKhboT9r2bVihGxsuUNABK6LsBdlMUayO3inCqpOSjRz+yt8bkQszA2gVrBmdA4MCaQVuy4CfFRso56F3jW8kCrsfz8/rw80PbdCXsx/ZtllvPqryLyVBAH0ZpaekvRTNXpfTyeyclyukmjsT9xKE9EDIQBWtAvydVvdOTsJ89uot1i49RC6CrIt8PBfRxhIaG/kb6ijug1geZgljUxH3e1HEQM7AWh6anwuGD/hVIGBuuG2G/dOIAG9A9SW3FfoB8PpTPTxDZnP+jTeAvKk2GVwvzldslXrkAIQMVCtYMhbMH/Y79u7bXjbgXDOynEhnPXyRfD8XzM4QHN24sCtxtpUkxreL1WuK++sP3IGZgLaZ36wRnD/odqbuaHoSd2s0qr9i52+TjoXT+mgNvNkVJX3cPlSbH3JmVT4X9/r27bNKITIgZ+DxL8uHoQb9k0eB0rwv7m+NL1FbsD8m3Q+EQQd+7rr7N6P4G1mSFxB7tWsPRg37JMfkD9Vmk5vE5e28oG/A4yE7gi9VSWTasWslmlhVC0MDnOKEIZWZB/6U3q9Mtem+67JuV7ot8ORQNeH4Fb+YrFOtHBwawvD7JEDTwHwVrhmewjq0i4eRBv+W4wiFeEfaPPnhX9snKKW98BZQMUNuin6H4NWgxsWF9O0HYQJnjJccGBw/6M18dNsjjwr5q8fssIqiJ2lb8DCgYoArG2C+kSTJXcQUvCXxBv84QN39ftRdmsoTwFnDwoF9z1NBMjwr72qXzWGSwqrDPJd8NBQMcIiUl5QVpsvxVeYvexArTukDk/Lk5TAGaw4DgsIw+HhP2DVULWKRKyV7y1eSzoVyAU8i0Wl8UzfxqpckUHhTARqSnQOj8ctWexVqLIXDuoN8zs1dnjwj7ppULWXSIRe2MfTX5aigW4BISEvh/EgVui5rAYwXvfxydlw3HDoISe7aP88iKXVXYJd9MPhpKBdQLbYKDfydNoj1qW/Q4g/evlq4x1mA4dhCU2DbM6v4zdtWteG4P+WYoFNAgxFmtL0kT6lO1IDtE0fsHR+UOhFMHwWdqgFz+/KDbouIj1bssfko+GcoEaILYlk3+Q03gKU0OefA+3hxmZDazW4Pg1EHwGR7cttoteexq6W7kg8kXQ5EAzVfwalv0odJXbE7PDhBCH2XJ0Cw4cxCsQRJirSvPqRaokXwvVuyAu8/gtyhHbnIsKyUeYuiDq/bokEA4cxCswcoJpZrWilcrKUs+F2fsgGei6FXS5IhpSXEQRZy1g6Dv57pn9nVvd7cn6W6Iigc8BjkPXqXQDTE10Q5h9IkI+YGIkAdBFXaOi3JbP/afC9Qgjx3wOJ5UspurNjG7xoWxivx0iKSBOSZ/EJw4CDqImD9zZHe9RP3SiQOsYGA/R9eei8pzgNdA9YxtZr5SbYK2j3yZvZ7bD0JpxLP2EVkstmUzOHEQdMCPF73vsrCfPbqLDeie5OC6fCVqxQO6gFq7WGKblsFsbE4qBNNoNeSHo4Y8CNbFN8YUuCTsx/ZtZt3iYxydsaNtK6AvhAp8sdqEjQkR2KjMHhBNo5y1F2Sw+IiWcN4gWAdTk+KdFva9m1awdlE21WuRD4WSAPpcwQt8b5vAP1SauBFBAahmZxCWjciF4wZBJ0hFvE4f3lWnsK9ePIfFqBWCknwm+U4oCKBrhJlNUaLA3VYLQEEuvP6ZHBcFxw2CTnLp3Mo6c9jpI0Alh/02+UwoB2AIhAc3bix9jV5UM4ZeCdGsYhgi6fXICUVYtYOgKyzMTlMU9SunDrHXChzErkg+knwlFAMwFCKb83+UVuoH1CZ2UlQLVpbbH4KqM6YmJ8Jhg6ALjG3ZVBbyZ4WdUuQG9u7iKNXtAPlIKAVgzCC70NDfiGauStUoXg5ko7N6QlT1EkhXkgdnDYL1ILVo/VnY929dxZJjIxxExHNV5BuhEIChUVpa+kvpK3WK2kQPD2rM8lKTIK464KB+PeGoQbAeHDU0Uxb2qgWzmD0kyNGKfQr5RCgD4DOwWfhB0hdrNWrS63TVXjREtXEFCIJ1bc03Y5NfG+lotV5NPhBKAPimwJsDEm0Cd0fNAJLtNpzDe4lFgwfASYOgOyj7vIBEKADg2+fwFo6XvmKPqxlCK2sgKx7QDYLr0QYxmWgQA4LuqD8v+TryefD8gF+gg9X6W1HgF6oZRJjFxLK7JUJ4PcTxhUPgiEFQ+8YyC8nXweMDfrhNb8qVDOCRmnF0iwtj5XlpEGA3s3NrO5wxCGon6o/It8HDA36NcCEg0iZwN9UMJa5FMCtBXXr3EelvIKjl+fpN8mnw7AAgIdJq/rNo5vc62qZH2Vr3MLtvDzhkENTkfJ3fS74MHh0AnkGm1fqio97wcjR9jMjGD0F/eM16thcNUq15DYKgK+QryYfBkwOACsLMfB+bwN1XMyJ7c4EV9O8CcdaAY/Ky4ZRBsGHb8PfJZ8FzA4ATCA0KaCIK/BFHRtU7IZqV5yPYriFsFxUK5wyC9Q+cO0K+Ch4bAFxAiiD82mbhJkpG9JOjYDvkxCOQDgQ9zJ/IN5GPgqcGgPpu01satxLN/HXVr2cLL5eunYAWsqgjD4LuD5q7Tj4JnhkAtNimt1h+Lwr8ckdG11ZsipQ5FwLpwgID4KxB0LVt+OXki+CRAUBrkRf4dMnA7jlaxffvGMsq8rGKd8SxBTlw1iDovKjfI98DDwwAbl3Fc7xkbAcdGWOblsGsOANn8WrsmhALpw2Czgn7QdSGBwAPwW63/0q0mMoctZCl9qWpiXZWnocuc89tyZfkwmmDYN0NX6rJx5CvgccFAA/DFsRZbQJ/1JGRxoQILC81CcL+tLVrBpw3CDrMXZd8iuRb4GEBwMureMkYi6Qv7QeODLaT3cZeG5zq9+IeH94CzhsElVfrD8iXYLUOAHo7izfz2x0Zb3hQABvQqY3/Btwhtx0E1VLctuNsHQB0CsbYL0QLP8AmcHccGXLsy0FsWN9OfifueQP6wpGD4PPlY++QzyDfAQ8KAHrfqheEP9WVF/9zI5rSQb39Q9wLM1iMNRjOHASfyVsnXwGPCQBG26o3c8mimb/hyMCpnWzf9jHs9Vzf7jZXUYwoeRB8sgV/g3wDPCQAGBhxVutLosBNl77SHzky+KimTdjAlARW4aNlbIe+0geOHfT3lfoj8gXkE+AZAcBHIAaazJJxr6/LAbRuEcTy+/jWefzEAmzJg34v7OvJB8ATAoCPwmYOSJSM/UxdzqBduJWNfKWrbwg8tuRB/+UZsnl4PgDwA2RarS+KFj6/rqh6OeguuqXhG9LkDegHJw/6YxR8Ptk6PB4A+Bns1oA/iAI301EZ2yfFLVjXuDD2anYvQ4p7a9EKZw/6T9lYyabJtuHhAMDft+oDGwdLX/pb63IcoQLPukkiP2ZgLwPVkkfhGtBvVutbyZbh0QAAeA5hAp8kffmfcCI4h6XEhRtC5IuHZMHpg76+Wj9BtgsPBgCAKkpLS39pswT0cCbojkSetutHZen3TL5zazsEAPTdYDnJVslm4bkAAHAKKSkpL4RauL42gb/ojKNJim7JCtP0FV0/uXgIBAD0xa5tF8k2yUbhqQAAqBce947nMkSBu+qM40kMa87y+iTrQtzHF0LcQV/KVeeuki2iaxsAANqt5AXh16EWfnBd5WyfbU6TlRLPyvP6e03cs3p3gyiAvlEuVrI9skF4IgAA3LWS/2fKn5VWEbeccUyRwY1Zajs7Kx3k4V7yBQNYdEggxAE08kr9Ftka2Rw8DwAAHhN5m8BlOhN493PwXecYkRX07+KZkrNIgQONHCgn2RZEHQAAr+FJD/kONoHf6azzoi37jC5t2fih7utEVzIUKXCg4QLldpItobc6AAC6QpgloIXknJbUVfHuabvZQJNcFGdEeorm4t47KRFiARqjopxkM2Q78CAAAOgaYrMm/xNq4aaJAn/P+dV8IEtPbs3G5jT8bH7SiEwWajFBPEA9d2m7J9uIZCvwGAAAGAr2Zs3+TVqVjBTN/HUXnB5LimrBhvbqyMrz0+on8CX5EBBQr5Hv18kmyDbgIQAAMLbI2+2/ovKYknNb4+yWPTE8qDHr1jqcDevXmVUMS3e+5OzQTAgJqKutd5r7ZAPIUQcAwDeFPpj/r1AL/6oocFdccZDRzZqw3glRTvWYT03GeTuoi1S2KzTXac7D8gEA8AtQPexQCxcvrWqqbAL/oytO095cYL0SollhWpdaK/qJhZksLDAA4gJ6K+L9R5rTNLdR8x0AAL+GLTDwP+WzeYE756ozjWrahHVvG8Hy+3SSz+gnjsqFwIDeWKWfozlMcxkWDQAA8AzknPlA3i6tfuaIAv+Nqw6WUus62sMgNqCnIt6/keeqNGeRmw4AAOAEMq3WF23mgETRzM2THOm3EBNQJ/z28ZwMSKQ5CksFAACoJ6hhBlXuklZKH4pm/i4EBvRw+tpdee5JcxDNWwAAANwAqrcdGhjQiap62QT+7xAf0E2BcX+nOUZzDTXeAQAAPIgOVutvbRZTF/nc08lWtCDoqLUqzSWaUzS3YGEAAAA6QIQloOmTing7XE2vA/01bY3fQXOG5g4sCAAAQOdIsPH/Km/fm/n3JCd+DWIGPhH0azQnaG7QHIGlAAAAGBjhAm8JFbgCybFvcqWhDWj8Bi30zund0xyAJQAAAPgoUlJSXhCD+RBR4IY8Ccz7AkLoMyvzL+S2w/RupXdM7xozHgAAwG9X9sJ/h1pMPW1mvlISiKOuNLgBvdiQRXpX9M7o3dE7xEwGAAAA1MU+vPG/2AJNrUWBL5VE5CPpnxckQfkJouo1/kTv4Mm7KKV3Q+8IMxUAAABoENoEB/9OFEw20cJlSAIzQ460FrjbEF7N67Tffjy20hjLY22y0dhjBgIAAAAeA7X0FIWAhMfNb/iFkjgdspn5v0Go6yL/NxoreczksQtIQHtUAAAAQPcr/bBgc2BooKm9HOAl8FOebCsfsQncHd8PbuPu0LM+eeYpNAY0FjQmWIkDAAAAPok4q/WlMMHUTBK+jqECny6aTSNEC/eGXCVN4FdKYrhb+n+nRTP/lR4C/Oge5Huhe5Luje5Rrg4o3TPdu/wM0rPQM9Gz4Q0DAAAAgANQS9GIoKB/t5nNpvBgXgwL5NtQI5MwC9811GLqZRNMaaGCKUteHVM+v8CXSMI7VhLcCZIgT5WzACTSv9N/o/9Hf+bxn6XfmLLka0jXomvK15b+Dvq76O+kvxttTQHAGPh/nWiJ2NS1bGQAAAAASUVORK5CYILeOykRYgEao6KcZDNkO/AgAADoGmKzJv8TauGmiQJ/z/nVfCBLT27NxuY0/Gx+0ohMFmoxQTxAPXdpuyfbiGQr8BgAABgK9mbN/k1alYwUzfx1F5weS4pqwYb26sjK89PqJ/Al+RAQUK+R79fJJsg24CEAADC2yNvtv6LymJJzW+Pslj0xPKgx69Y6nA3r15lVDEt3vuTs0EwICairrXea+2QDyFEHAMA3hT6Y/69QC/+qKHBXXHGQ0c2asN4JUU71mE9Nxnk7qItUtis012nOw/IBAPALUD3sUAsXL61qqmwC/6MrTtPeXGC9EqJZYVqXWiv6iYWZLCwwAOICeivi/Uea0zS3UfMdAAC/hi0w8D/ls3mBO+eqM41q2oR1bxvB8vt0ks/oJ47KhcCA3liln6M5THMZFg0AAPAM5Jz5QN4urX7miAL/jasOllLrOtrDIDagpyLev5HnqjRnkZsOAADgBDKt1hdt5oBE0czNkxzptxATUCf89vGcDEikOQpLBQAAqCeoYQZV7pJWSh+KZv4uBAb0cPraXXnuSXMQzVsAAADcAKq3HRoY0ImqetkE/u8QH9BNgXF/pzlGcw013gEAADyIDlbrb20WUxf53NPJVrQg6Ki1Ks0lmlM0t2BhAAAAOkCEJaDpk4p4O1xNrwP9NW2N30FzhuYOLAgAAEDnSLDx/ypv35v59yQnfg1iBj4R9Gs0J2hu0ByBpQAAABgY4QJvCRW4Asmxb3KloQ1o/AYt9M7p3dMcgCUAAAD4KFJSUl4Qg/kQUeCGPAnM+wJC6DMr8y/ktsP0bqV3TO8aMx4AAMBvV/bCf4daTD1tZr5SEoijrjS4Ab3YkEV6V/TO6N3RO8RMBgAAANTFPrzxv9gCTa1FgS+VROQj6Z8XJEH5CaLqNf5E7+DJuyild0PvCDMVAAAAaBDaBAf/ThRMNtHCZUgCM0OOtBa42xBezeu03348ttIYy2NtstHYYwYCAAAAHgO19BSFgITHzW/4hZI4HbKZ+b9BqOsi/zcaK3nM5LELSEB7VAAAAED3K/2wYHNgaKCpvRzgJfBTnmwrH7EJ3B3fD27j7tCzPnnmKTQGNBY0JliJAwAAAD6JOKv1pTDB1EwSvo6hAp8umk0jRAv3hlwlTeBXSmK4W/p/p0Uz/5UeAvzoHuR7oXuS7o3uUa4OKN0z3bv8DNKz0DPRs+ENAwAAAIADUEvRiKCgf7eZzabwYF4MC+TbUCOTMAvfNdRi6mUTTGmhgilLXh1TPr/Al0jCO1YS3AmSIE+VswAk0r/Tf6P/R3/m8Z+l35iy5GtI16JryteW/g76u+jv;" vertex="1" parent="1">
          <mxGeometry x="490" y="33.5" width="203" height="203" as="geometry" />
        </mxCell>
        <mxCell id="DoU1-KrDi31RymIyCZFU-8" value="" style="shape=flexArrow;endArrow=classic;html=1;rounded=0;fillColor=#647687;strokeColor=#314354;" edge="1" parent="1">
          <mxGeometry width="50" height="50" relative="1" as="geometry">
            <mxPoint x="400" y="134.66" as="sourcePoint" />
            <mxPoint x="465" y="134.66" as="targetPoint" />
          </mxGeometry>
        </mxCell>
      </root>
    </mxGraphModel>
  </diagram>
</mxfile>
